<svg width="14" height="14" viewBox="0 0 14 14" fill="none" xmlns="http://www.w3.org/2000/svg">
<path d="M12.3334 7.33333C12.3334 7.20072 12.3861 7.07355 12.4799 6.97978C12.5736 6.88601 12.7008 6.83333 12.8334 6.83333C12.966 6.83333 13.0932 6.88601 13.187 6.97978C13.2807 7.07355 13.3334 7.20072 13.3334 7.33333V11.5C13.3334 12.5125 12.5126 13.3333 11.5001 13.3333H2.50008C1.48758 13.3333 0.666748 12.5125 0.666748 11.5V3C0.666748 1.9875 1.48758 1.16666 2.50008 1.16666H6.83342C6.96602 1.16666 7.0932 1.21934 7.18697 1.31311C7.28074 1.40688 7.33341 1.53406 7.33341 1.66666C7.33341 1.79927 7.28074 1.92645 7.18697 2.02022C7.0932 2.11399 6.96602 2.16666 6.83342 2.16666H2.50008C2.27907 2.16666 2.06711 2.25446 1.91083 2.41074C1.75455 2.56702 1.66675 2.77898 1.66675 3V11.5C1.66675 11.721 1.75455 11.933 1.91083 12.0893C2.06711 12.2455 2.27907 12.3333 2.50008 12.3333H11.5001C11.7211 12.3333 11.9331 12.2455 12.0893 12.0893C12.2456 11.933 12.3334 11.721 12.3334 11.5V7.33333ZM11.6762 3L10.2732 1.50933C10.1824 1.41275 10.1336 1.28402 10.1376 1.15146C10.1416 1.0189 10.1982 0.893378 10.2947 0.802497C10.3913 0.711617 10.5201 0.662825 10.6526 0.666857C10.7852 0.670889 10.9107 0.727414 11.0016 0.823997L13.1976 3.15733C13.4979 3.47633 13.2716 4 12.8334 4H10.3236C9.04741 4 8.00008 5.11266 8.00008 6.5V9.5C8.00008 9.63261 7.9474 9.75978 7.85364 9.85355C7.75987 9.94732 7.63269 10 7.50008 10C7.36747 10 7.2403 9.94732 7.14653 9.85355C7.05276 9.75978 7.00008 9.63261 7.00008 9.5V6.5C7.00008 4.5735 8.48108 3 10.3236 3H11.6762Z" fill="#4666F6"/>
</svg>
