<svg width="20" height="20" viewBox="0 0 20 20" fill="none" xmlns="http://www.w3.org/2000/svg">
<g clip-path="url(#clip0_1272_31115)">
<path d="M14.6667 0H5.33333C2.38781 0 0 2.38781 0 5.33333V14.6667C0 17.6122 2.38781 20 5.33333 20H14.6667C17.6122 20 20 17.6122 20 14.6667V5.33333C20 2.38781 17.6122 0 14.6667 0Z" fill="#FDB324"/>
<g clip-path="url(#clip1_1272_31115)">
<path d="M6.38602 13.5042C6.31146 13.5042 6.16233 13.5042 6.08777 13.4296C5.86408 13.2805 5.86408 13.0568 6.08777 12.9077L8.02641 10.2979C8.17553 10.1488 8.39922 10.1488 8.62291 10.2234L10.3379 11.3418L13.395 8.21018C13.5441 8.06105 14.2897 7.31542 14.7371 8.13561V13.4296C14.6625 13.5042 6.38602 13.5042 6.38602 13.5042ZM7.05709 6.27154C7.57903 6.27154 8.02641 6.71891 8.02641 7.24086C8.02641 7.7628 7.65359 8.21018 7.05709 8.21018C6.53515 8.21018 6.08777 7.7628 6.08777 7.24086C6.08777 6.71891 6.53515 6.27154 7.05709 6.27154ZM14.9608 4.78027H4.96932C4.37282 4.78027 4 5.15309 4 5.67503V13.9515C4 14.3989 4.37282 14.8463 4.96932 14.8463H15.0353C15.5573 14.8463 16.0047 14.3989 16.0047 13.9515V5.67503C15.9301 5.22765 15.5573 4.78027 14.9608 4.78027Z" fill="white"/>
</g>
</g>
<defs>
<clipPath id="clip0_1272_31115">
<rect width="20" height="20" fill="white"/>
</clipPath>
<clipPath id="clip1_1272_31115">
<rect width="12" height="12" fill="white" transform="translate(4 4)"/>
</clipPath>
</defs>
</svg>
