<svg width="24" height="24" viewBox="0 0 24 24" fill="none" xmlns="http://www.w3.org/2000/svg">
<mask id="mask0_1272_31105" style="mask-type:alpha" maskUnits="userSpaceOnUse" x="0" y="0" width="24" height="24">
<rect width="24" height="24" fill="#D9D9D9"/>
</mask>
<g mask="url(#mask0_1272_31105)">
</g>
<g clip-path="url(#clip0_1272_31105)">
<path d="M16.6664 2H7.33309C4.38757 2 1.99976 4.38781 1.99976 7.33333V16.6667C1.99976 19.6122 4.38757 22 7.33309 22H16.6664C19.6119 22 21.9998 19.6122 21.9998 16.6667V7.33333C21.9998 4.38781 19.6119 2 16.6664 2Z" fill="#00A3FF"/>
<g clip-path="url(#clip1_1272_31105)">
<path d="M10.2324 13.7681C10.3496 13.8853 10.5086 13.9512 10.6743 13.9512C10.8401 13.9512 10.9991 13.8853 11.1163 13.7681L13.7679 11.1165C13.8852 10.9993 13.951 10.8403 13.951 10.6745C13.951 10.5088 13.8852 10.3498 13.7679 10.2326C13.6507 10.1154 13.4918 10.0495 13.326 10.0495C13.1602 10.0495 13.0013 10.1154 12.8841 10.2326L10.2324 12.8842C10.1152 13.0014 10.0493 13.1604 10.0493 13.3262C10.0493 13.4919 10.1152 13.6509 10.2324 13.7681Z" fill="white"/>
<path d="M12.4423 15.0937L11.6513 15.8847C11.2092 16.351 10.6092 16.6357 9.96842 16.6831C9.32767 16.7305 8.69227 16.5372 8.18643 16.1411C7.91811 15.9183 7.69934 15.642 7.54418 15.3297C7.38903 15.0174 7.30092 14.6761 7.28552 14.3277C7.27012 13.9794 7.32777 13.6316 7.45476 13.3069C7.58176 12.9821 7.77529 12.6875 8.02291 12.442L8.9068 11.5581C9.02398 11.4409 9.0898 11.2819 9.08979 11.1162C9.08977 10.9505 9.02393 10.7915 8.90673 10.6743C8.78953 10.5571 8.63058 10.4913 8.46484 10.4912C8.29909 10.4912 8.14013 10.5571 8.02291 10.6742L7.23184 11.4653C6.568 12.1116 6.15996 12.976 6.08282 13.8993C6.00567 14.8226 6.26462 15.7427 6.81199 16.4902C7.13675 16.9144 7.54841 17.2644 8.01941 17.5166C8.4904 17.7688 9.00986 17.9175 9.54297 17.9526C10.0761 17.9878 10.6106 17.9086 11.1106 17.7204C11.6106 17.5322 12.0647 17.2393 12.4423 16.8614L13.3262 15.9775C13.4434 15.8603 13.5092 15.7014 13.5092 15.5356C13.5092 15.3699 13.4433 15.2109 13.3261 15.0937C13.2089 14.9765 13.05 14.9107 12.8843 14.9107C12.7185 14.9106 12.5595 14.9765 12.4423 15.0937ZM16.5259 6.80282C15.7714 6.24604 14.8397 5.98372 13.9056 6.06509C12.9715 6.14646 12.0992 6.56592 11.4524 7.24477L10.785 7.9121C10.4271 8.27007 10.4315 8.6634 10.6746 8.90647C10.7918 9.02368 10.9507 9.08952 11.1165 9.08952C11.2823 9.08952 11.4412 9.02368 11.5584 8.90647L12.3495 8.11539C12.7916 7.64911 13.3916 7.36445 14.0324 7.31704C14.6731 7.26964 15.3085 7.46291 15.8143 7.85906C16.0827 8.08177 16.3014 8.35815 16.4566 8.67043C16.6117 8.98272 16.6999 9.32401 16.7153 9.67238C16.7307 10.0207 16.673 10.3685 16.546 10.6932C16.419 11.018 16.2255 11.3126 15.9779 11.5581L15.094 12.442C14.9768 12.5592 14.911 12.7182 14.911 12.8839C14.911 13.0497 14.9768 13.2086 15.094 13.3258C15.2112 13.443 15.3702 13.5089 15.5359 13.5089C15.7017 13.5089 15.8606 13.4431 15.9779 13.3259L16.8617 12.442C17.2432 12.0667 17.5399 11.6141 17.7319 11.1146C17.9239 10.6151 18.0067 10.0803 17.9749 9.54611C17.9431 9.01193 17.7973 8.49075 17.5474 8.01759C17.2975 7.54442 16.9492 7.13022 16.5259 6.80282Z" fill="white"/>
</g>
</g>
<defs>
<clipPath id="clip0_1272_31105">
<rect width="20" height="20" fill="white" transform="translate(2.00024 2)"/>
</clipPath>
<clipPath id="clip1_1272_31105">
<rect width="15" height="15" fill="white" transform="translate(1.39357 12) rotate(-45)"/>
</clipPath>
</defs>
</svg>
