<svg width="24" height="24" viewBox="0 0 24 24" fill="none" xmlns="http://www.w3.org/2000/svg">
<mask id="mask0_1272_31098" style="mask-type:alpha" maskUnits="userSpaceOnUse" x="0" y="0" width="24" height="24">
<rect width="24" height="24" fill="#D9D9D9"/>
</mask>
<g mask="url(#mask0_1272_31098)">
</g>
<g clip-path="url(#clip0_1272_31098)">
<path d="M16.6664 2H7.33309C4.38757 2 1.99976 4.38781 1.99976 7.33333V16.6667C1.99976 19.6122 4.38757 22 7.33309 22H16.6664C19.6119 22 21.9998 19.6122 21.9998 16.6667V7.33333C21.9998 4.38781 19.6119 2 16.6664 2Z" fill="#00CC5E"/>
<path d="M17.0002 7H7.00024C6.83448 7 6.67551 7.06585 6.5583 7.18306C6.44109 7.30027 6.37524 7.45924 6.37524 7.625V9.5C6.37527 9.66574 6.44113 9.82469 6.55834 9.94188C6.67554 10.0591 6.8345 10.1249 7.00024 10.1249C7.16599 10.1249 7.32494 10.0591 7.44215 9.94188C7.55936 9.82469 7.62522 9.66574 7.62524 9.5V8.25H11.3752V16.375H10.1252C9.9595 16.375 9.80055 16.4409 9.68336 16.5581C9.56617 16.6753 9.50034 16.8343 9.50034 17C9.50034 17.1657 9.56617 17.3247 9.68336 17.4419C9.80055 17.5591 9.9595 17.625 10.1252 17.625H13.8752C14.041 17.625 14.1999 17.5591 14.3171 17.4419C14.4343 17.3247 14.5001 17.1657 14.5001 17C14.5001 16.8343 14.4343 16.6753 14.3171 16.5581C14.1999 16.4409 14.041 16.375 13.8752 16.375H12.6252V8.25H16.3752V9.5C16.3753 9.66574 16.4411 9.82469 16.5583 9.94188C16.6755 10.0591 16.8345 10.1249 17.0002 10.1249C17.166 10.1249 17.3249 10.0591 17.4422 9.94188C17.5594 9.82469 17.6252 9.66574 17.6252 9.5V7.625C17.6252 7.45924 17.5594 7.30027 17.4422 7.18306C17.325 7.06585 17.166 7 17.0002 7Z" fill="white"/>
</g>
<defs>
<clipPath id="clip0_1272_31098">
<rect width="20" height="20" fill="white" transform="translate(2.00024 2)"/>
</clipPath>
</defs>
</svg>
