<svg width="24" height="24" viewBox="0 0 24 24" fill="none" xmlns="http://www.w3.org/2000/svg">
<mask id="mask0_1272_31155" style="mask-type:alpha" maskUnits="userSpaceOnUse" x="0" y="0" width="24" height="24">
<rect width="24" height="24" fill="#D9D9D9"/>
</mask>
<g mask="url(#mask0_1272_31155)">
</g>
<g clip-path="url(#clip0_1272_31155)">
<path d="M16.6662 2H7.33284C4.38733 2 1.99951 4.38781 1.99951 7.33333V16.6667C1.99951 19.6122 4.38733 22 7.33284 22H16.6662C19.6117 22 21.9995 19.6122 21.9995 16.6667V7.33333C21.9995 4.38781 19.6117 2 16.6662 2Z" fill="#FF2C2C"/>
<path d="M17.88 9.56277C17.88 9.56277 17.7625 8.72328 17.403 8.35319C16.9465 7.86765 16.435 7.86563 16.2005 7.8374C14.5215 7.71387 12.0025 7.71387 12.0025 7.71387H11.9975C11.9975 7.71387 9.4785 7.71387 7.7995 7.8374C7.5645 7.86563 7.0535 7.86765 6.5965 8.35319C6.237 8.72328 6.12 9.56328 6.12 9.56328C6.12 9.56328 6 10.5485 6 11.5342V12.4594C6 13.4456 6.12 14.4319 6.12 14.4319C6.12 14.4319 6.237 15.2713 6.5965 15.6414C7.0535 16.127 7.653 16.1113 7.92 16.1623C8.88 16.2566 12 16.2853 12 16.2853C12 16.2853 14.5215 16.2813 16.2005 16.1582C16.4355 16.1295 16.9465 16.1275 17.403 15.6419C17.763 15.2719 17.88 14.4319 17.88 14.4319C17.88 14.4319 18 13.4461 18 12.4599V11.5352C18 10.549 17.88 9.56277 17.88 9.56277Z" fill="white"/>
<path d="M10.6995 9.80469V14.1683L14.2995 11.994L10.6995 9.80469Z" fill="#FF2C2C"/>
</g>
<defs>
<clipPath id="clip0_1272_31155">
<rect width="20" height="20" fill="white" transform="translate(2 2)"/>
</clipPath>
</defs>
</svg>
