<svg width="24" height="24" viewBox="0 0 24 24" fill="none" xmlns="http://www.w3.org/2000/svg">
<path d="M2 12C2 6.47715 6.47715 2 12 2C17.5228 2 22 6.47715 22 12C22 17.5228 17.5228 22 12 22C6.47715 22 2 17.5228 2 12Z" fill="url(#paint0_linear_1269_27076)"/>
<path d="M16.4395 11.3176H7.5704C7.34456 11.3176 7.15979 11.1328 7.15979 10.9069V10.2808C7.15979 9.57243 7.73464 8.99756 8.44294 8.99756H15.5567C16.265 8.99756 16.8399 9.57243 16.8399 10.2808V10.9069C16.8501 11.1328 16.6653 11.3176 16.4395 11.3176Z" fill="white"/>
<path d="M14.5714 8.31952H9.43882C9.21298 8.31952 9.01794 8.13474 9.01794 7.89864C9.01794 6.85155 9.86995 5.99951 10.917 5.99951H13.0932C14.1403 5.99951 14.9923 6.85155 14.9923 7.89864C14.9923 8.13474 14.8075 8.31952 14.5714 8.31952Z" fill="white"/>
<path d="M16.8503 11.9946H7.15997C6.52352 11.9946 6 12.5182 6 13.1546C6 13.7911 6.52352 14.3146 7.15997 14.3146H10.5988C10.722 13.6576 11.2968 13.1546 11.9949 13.1546C12.6929 13.1546 13.278 13.6576 13.4012 14.3146H16.84C17.4765 14.3146 18 13.7911 18 13.1546C18 12.5182 17.4867 11.9946 16.8503 11.9946Z" fill="white"/>
<path d="M16.4296 14.9912H13.4219V17.3112H15.6803C16.3167 17.3112 16.8402 16.7877 16.8402 16.1512V15.4121C16.8505 15.1863 16.6657 14.9912 16.4296 14.9912Z" fill="white"/>
<path d="M7.57077 14.9912C7.34494 14.9912 7.1499 15.176 7.1499 15.4121V16.1512C7.1499 16.7877 7.67343 17.3112 8.30987 17.3112H10.5682V14.9912C10.5785 14.9912 7.57077 14.9912 7.57077 14.9912Z" fill="white"/>
<defs>
<linearGradient id="paint0_linear_1269_27076" x1="2" y1="2" x2="22" y2="22" gradientUnits="userSpaceOnUse">
<stop stop-color="#ED5DBC"/>
<stop offset="1" stop-color="#3843D0"/>
</linearGradient>
</defs>
</svg>
