<svg width="24" height="24" viewBox="0 0 24 24" fill="none" xmlns="http://www.w3.org/2000/svg">
<g clip-path="url(#clip0_1269_27048)">
<path d="M15.0312 2C17.0312 2 18.0312 2 19.125 2.34375C19.7056 2.55616 20.2329 2.89269 20.6701 3.32987C21.1073 3.76706 21.4438 4.29436 21.6562 4.875C22 5.96875 22 6.96875 22 8.97187V15.025C22 17.0312 22 18.0375 21.6562 19.1187C21.4438 19.6994 21.1073 20.2267 20.6701 20.6639C20.2329 21.1011 19.7056 21.4376 19.125 21.65C18.0312 22 17.0312 22 15.0312 22H8.96875C6.9625 22 5.95625 22 4.875 21.6562C4.29436 21.4438 3.76706 21.1073 3.32987 20.6701C2.89269 20.2329 2.55616 19.7056 2.34375 19.125C2 18.0312 2 17.0312 2 15.0281V8.96875C2 6.9625 2 5.95625 2.34375 4.875C2.55616 4.29436 2.89269 3.76706 3.32987 3.32987C3.76706 2.89269 4.29436 2.55616 4.875 2.34375C5.96875 2 6.96875 2 8.96875 2H15.0312Z" fill="#00D632"/>
<path d="M15.2719 9.4373C15.4281 9.59355 15.6875 9.59355 15.8344 9.4373L16.6156 8.6248C16.7812 8.46855 16.7719 8.1873 16.5969 8.01855C15.983 7.48383 15.2692 7.07599 14.4969 6.81855L14.7437 5.63105C14.7969 5.37168 14.6031 5.12793 14.3437 5.12793H12.8312C12.7367 5.12894 12.6454 5.1624 12.5726 5.2227C12.4997 5.283 12.4499 5.36649 12.4312 5.45918L12.2125 6.51543C10.2 6.61855 8.49374 7.64043 8.49374 9.73418C8.49374 11.5467 9.90311 12.3248 11.3937 12.8592C12.8031 13.3967 13.55 13.5967 13.55 14.3529C13.55 15.1311 12.8062 15.5873 11.7062 15.5873C10.7062 15.5873 9.65624 15.2529 8.84374 14.4373C8.806 14.3995 8.76119 14.3695 8.71186 14.3491C8.66252 14.3286 8.60964 14.3181 8.55624 14.3181C8.50283 14.3181 8.44995 14.3286 8.40061 14.3491C8.35128 14.3695 8.30647 14.3995 8.26874 14.4373L7.42499 15.2811C7.3456 15.3607 7.30103 15.4686 7.30103 15.5811C7.30103 15.6935 7.3456 15.8014 7.42499 15.8811C8.08124 16.5279 8.91249 16.9967 9.85999 17.2561L9.62874 18.3717C9.57561 18.6311 9.76624 18.8717 10.0256 18.8748L11.5412 18.8873C11.6368 18.8877 11.7296 18.8549 11.8037 18.7945C11.8778 18.7341 11.9287 18.6498 11.9475 18.5561L12.1662 17.4967C14.5875 17.3342 16.0625 15.9998 16.0625 14.0529C16.0625 12.2592 14.5937 11.5029 12.8125 10.8873C11.7937 10.5092 10.9125 10.2498 10.9125 9.47168C10.9125 8.71543 11.7344 8.41543 12.5594 8.41543C13.6094 8.41543 14.6187 8.8498 15.2781 9.44355L15.2719 9.4373Z" fill="white"/>
</g>
<defs>
<clipPath id="clip0_1269_27048">
<rect width="20" height="20" fill="white" transform="translate(2 2)"/>
</clipPath>
</defs>
</svg>
