<svg width="26" height="24" viewBox="0 0 26 24" fill="none" xmlns="http://www.w3.org/2000/svg">
<g clip-path="url(#clip0_1269_27027)">
<path d="M6.9295 10.6051C7.25091 11.6536 7.63549 12.6817 8.08147 13.6835C8.82044 15.4379 9.31905 16.3667 10.0082 17.5184C10.8503 18.8935 11.7802 20.4595 13.3101 21.4736C14.4287 22.2126 15.7884 22.5908 17.0948 22.5908C18.9355 22.5908 20.517 21.7838 21.5328 20.8364C22.5297 19.9083 23.8206 18.1187 23.8206 14.6277C23.8206 13.4245 24.3533 12.3915 24.7487 11.5666C24.7487 11.5494 24.7659 11.515 24.8003 11.4462C24.955 11.1023 25.1442 10.6553 25.1442 10.2086C25.1459 9.8416 25.0382 9.48229 24.8347 9.17702C24.4908 8.59279 23.8722 8.38646 23.3034 8.38646C21.9798 8.38646 21.0672 9.31457 20.6016 10.2616L20.4468 10.5711C20.2577 10.296 20.0686 10.0037 19.9138 9.74581C19.4327 8.90367 19.1576 8.33629 18.9169 7.61275C18.7317 7.03764 18.5822 6.45201 18.4699 5.8583C18.178 4.17228 17.6979 3.62208 16.9042 3.41576C16.3196 3.26102 15.6323 3.38067 15.1322 3.70805C14.7898 2.9361 14.2055 2.59082 13.4304 2.59082C12.3304 2.59082 11.3318 3.3126 11.3318 4.53475C11.3318 4.68949 11.3489 4.84423 11.3668 5.03336C11.2205 4.99827 11.0703 4.98108 10.9198 4.98178C9.7338 4.98178 8.85553 5.80672 8.85553 6.92571C8.85904 7.22712 8.89974 7.52678 8.97659 7.81837C8.87413 7.80399 8.77061 7.79837 8.6671 7.80118C8.08287 7.83627 7.54987 8.05908 7.17021 8.52331C6.79335 8.97034 6.63861 9.65809 6.9295 10.6051Z" fill="#1F1F1A"/>
<path d="M7.91146 10.2954C7.75672 9.79674 7.77391 9.41813 7.96304 9.17812C8.15182 8.95461 8.40972 8.85145 8.71921 8.83425C9.25221 8.81706 9.45853 9.19532 9.76766 10.175C9.95679 10.794 10.3351 11.6894 10.5586 12.1877C10.8509 12.7895 11.2632 13.5972 11.4523 13.8741C11.607 14.1144 11.7446 14.1832 11.8993 14.1832C12.1744 14.1832 12.3807 14.0285 12.3807 13.7537C12.3807 13.599 12.226 13.3411 12.14 13.1863C11.9853 12.894 11.6586 12.3091 11.4351 11.8112C11.1944 11.261 10.9196 10.5736 10.6961 9.95324C10.5586 9.59217 10.4038 9.07601 10.2491 8.56091C10.0084 7.77 9.88802 7.28858 9.88802 6.92611C9.88802 6.37627 10.3007 6.0138 10.9196 6.0138C11.3663 6.0138 11.6586 6.23732 11.8477 7.04507C12.0025 7.78439 12.2776 8.98899 12.6727 9.93464C12.9306 10.5533 13.3088 11.38 13.5324 11.7926C13.6699 12.0333 13.8246 12.2396 13.8246 12.3256C13.8246 12.446 13.6011 12.6347 13.412 12.8926C13.2916 13.0474 13.2401 13.1505 13.2401 13.2709C13.2401 13.3741 13.3102 13.4772 13.412 13.6148C13.5138 13.7523 13.6183 13.8899 13.7387 13.8899C13.8246 13.8899 13.8762 13.8548 13.9278 13.7867C14.4605 13.1162 15.045 12.6519 15.7173 12.2723C16.5079 11.8252 17.3174 11.6021 17.9536 11.4652C18.2631 11.395 18.349 11.3277 18.349 11.1557C18.349 10.9494 18.1943 10.8291 17.988 10.8119C17.8332 10.7947 17.6957 10.8119 17.455 10.8291C17.283 10.8463 17.197 10.7589 17.0939 10.5368C16.7848 9.88376 16.1816 8.78232 15.8219 7.37245C15.6426 6.69523 15.5163 6.00503 15.444 5.30816C15.3924 4.9299 15.4612 4.79235 15.65 4.62042C15.8907 4.41445 16.3205 4.32848 16.6472 4.41445C17.0423 4.51726 17.2486 4.82674 17.4542 6.0317C17.5721 6.67804 17.7332 7.31595 17.9357 7.94124C18.1936 8.73214 18.5199 9.3869 19.0185 10.2634C19.3157 10.7701 19.6427 11.2585 19.9982 11.7259C19.928 11.9323 19.8094 12.0698 19.414 12.3965C19.0185 12.7232 18.6224 13.0677 18.2627 13.7035C18.0048 14.1678 17.8844 14.6832 17.8844 15.0271C17.8844 15.371 17.9546 15.4226 18.1595 15.4226C18.5203 15.4226 18.8125 15.3524 18.8297 15.199C18.9157 14.5804 19.0189 14.185 19.3627 13.7193C19.5691 13.4614 19.9301 13.1348 20.2221 12.8772C20.7723 12.4305 20.9614 12.1726 21.1505 11.5365C21.2309 11.2512 21.3404 10.9747 21.4768 10.7115C21.8035 10.1097 22.3892 9.42234 23.3015 9.42234C23.5938 9.42234 23.8341 9.50796 23.9889 9.74867C24.0748 9.88622 24.1092 10.0753 24.1092 10.2129C24.1092 10.5224 23.8857 10.9522 23.7825 11.1582C23.4046 11.9652 22.7857 13.2053 22.7857 14.632C22.7839 17.7447 21.6839 19.2922 20.8242 20.0841C19.9821 20.8747 18.6567 21.5638 17.0925 21.5638C15.9752 21.5638 14.8219 21.2371 13.8766 20.6185C12.553 19.7413 11.7263 18.3651 10.8838 16.99C10.2136 15.8727 9.74942 14.9945 9.02588 13.2927C8.61675 12.3067 8.23673 11.3438 7.91146 10.2954Z" fill="#FFE450"/>
<path d="M12.3333 4.53487C12.3333 3.88152 12.9347 3.62256 13.4333 3.62256C13.9663 3.62256 14.1551 3.88011 14.2926 4.4296C14.413 4.87664 14.4646 5.28893 14.5161 5.77035C14.5863 6.25177 14.8256 7.35357 14.8944 7.62831C15.1523 8.57396 15.6664 9.6926 16.2867 11.0337C15.8857 11.1712 15.4951 11.3379 15.1179 11.532C14.7053 11.7555 14.6193 11.7555 14.4474 11.4288C14.0863 10.7586 13.8287 10.26 13.6052 9.67435C13.3887 9.13152 13.2101 8.57466 13.0701 8.00727C12.8122 6.92408 12.7778 6.61494 12.5715 6.11458C12.4522 5.60052 12.3333 4.96471 12.3333 4.53487Z" fill="#FFE450"/>
<path d="M6.17474 16.0497C5.81052 16.2749 3.88063 17.2858 3.44482 17.4469C3.13358 17.5623 2.79603 17.5343 2.59777 16.9469C2.35215 16.2202 2.69602 16.0483 3.18376 15.8591C3.615 15.6921 5.40419 15.0451 5.81999 14.9324C6.11228 14.8542 6.31545 14.9528 6.4558 15.3044C6.61055 15.6903 6.50423 15.8451 6.17509 16.0497" fill="#FFE450"/>
<path d="M4.58344 11.9525C4.06483 11.9666 1.90966 11.8743 1.41736 11.8259C0.989279 11.7838 0.81594 11.5946 0.862608 10.9743C0.912785 10.3076 1.17209 10.2679 1.59246 10.3076C2.08019 10.3542 4.33817 10.7216 4.69748 10.8339C5.06942 10.9497 5.121 11.1185 5.07574 11.4434C5.01784 11.8645 4.82731 11.9448 4.58449 11.9529" fill="#FFE450"/>
<path d="M4.85071 7.58939C4.25665 7.40166 2.49413 6.33425 2.03447 6.05951C1.61902 5.80932 1.56568 5.5844 1.85481 5.03596C2.11131 4.55138 2.39553 4.46682 2.81765 4.68507C3.30679 4.93982 5.03352 6.28373 5.36301 6.54935C5.68197 6.8055 5.6381 6.93849 5.47108 7.26832C5.30406 7.59816 5.14756 7.68237 4.85071 7.58868" fill="#FFE450"/>
</g>
<defs>
<clipPath id="clip0_1269_27027">
<rect width="24.2886" height="20" fill="white" transform="translate(0.855469 2.59082)"/>
</clipPath>
</defs>
</svg>
