<svg width="24" height="24" viewBox="0 0 24 24" fill="none" xmlns="http://www.w3.org/2000/svg">
<path fill-rule="evenodd" clip-rule="evenodd" d="M19.4513 4.35646C19.6548 3.1767 19.9535 2.43484 20.2843 2.43342H20.285C20.902 2.43555 21.402 5.00833 21.402 8.18483C21.402 11.3613 20.9012 13.9362 20.2836 13.9362C20.0304 13.9362 19.7968 13.499 19.6087 12.7664C19.3114 15.4483 18.6945 17.292 17.9803 17.292C17.4278 17.292 16.9318 16.1845 16.5989 14.4379C16.3716 17.7596 15.7994 20.1163 15.1307 20.1163C14.7111 20.1163 14.3285 19.1824 14.0452 17.6618C13.7046 20.8008 12.9177 23.0001 12 23.0001C11.0823 23.0001 10.294 20.8015 9.95478 17.6618C9.67359 19.1824 9.29101 20.1163 8.86921 20.1163C8.20054 20.1163 7.62978 17.7596 7.40107 14.4379C7.06813 16.1845 6.57363 17.292 6.01964 17.292C5.30619 17.292 4.68859 15.449 4.39132 12.7664C4.20457 13.5012 3.96955 13.9362 3.71635 13.9362C3.09873 13.9362 2.59792 11.3613 2.59792 8.18483C2.59792 5.00833 3.09873 2.43342 3.71635 2.43342C4.04789 2.43342 4.34446 3.17741 4.5501 4.35646C4.87954 2.32218 5.41464 1 6.01964 1C6.73799 1 7.3605 2.8699 7.65498 5.5851C7.94314 3.60892 8.3803 2.3491 8.86994 2.3491C9.55607 2.3491 10.1394 4.82694 10.3556 8.28333C10.762 6.51117 11.3502 5.39946 12.0014 5.39946C12.6526 5.39946 13.2408 6.5119 13.6465 8.28333C13.8633 4.82694 14.446 2.3491 15.1321 2.3491C15.621 2.3491 16.0575 3.60892 16.3471 5.5851C16.6408 2.8699 17.2634 1 17.9817 1C18.5847 1 19.1218 2.32289 19.4513 4.35646ZM0.999756 7.61915C0.999756 6.19918 1.28374 5.04776 1.63416 5.04776C1.98459 5.04776 2.26857 6.19918 2.26857 7.61915C2.26857 9.03908 1.98459 10.1905 1.63416 10.1905C1.28374 10.1905 0.999756 9.03908 0.999756 7.61915ZM21.7309 7.61915C21.7309 6.19918 22.0149 5.04776 22.3653 5.04776C22.7158 5.04776 22.9998 6.19918 22.9998 7.61915C22.9998 9.03908 22.7158 10.1905 22.3653 10.1905C22.0149 10.1905 21.7309 9.03908 21.7309 7.61915Z" fill="#A238FF"/>
</svg>
