<svg width="24" height="24" viewBox="0 0 24 24" fill="none" xmlns="http://www.w3.org/2000/svg">
<path d="M12.301 1.78809C6.33335 1.78567 1.49983 6.61678 1.49983 12.5796C1.49983 17.2949 4.52349 21.3031 8.73442 22.7751C9.30151 22.9175 9.21464 22.5145 9.21464 22.2394V20.3692C5.94001 20.7529 5.80728 18.5859 5.58769 18.224C5.14367 17.4662 4.09396 17.2732 4.40766 16.9112C5.15332 16.5275 5.91346 17.0077 6.79426 18.3084C7.43133 19.252 8.67409 19.0927 9.30392 18.9358C9.44147 18.3688 9.73587 17.862 10.1413 17.4687C6.74841 16.8605 5.33431 14.7901 5.33431 12.3287C5.33431 11.1342 5.72765 10.0362 6.49986 9.15057C6.00758 7.69062 6.5457 6.44062 6.6181 6.25481C8.02013 6.12932 9.47767 7.25867 9.59108 7.34796C10.3874 7.13319 11.2972 7.01977 12.3155 7.01977C13.3387 7.01977 14.2509 7.13801 15.0544 7.3552C15.3271 7.14767 16.6785 6.17758 17.9816 6.29583C18.0515 6.48164 18.5776 7.70269 18.1143 9.14333C18.8961 10.0314 19.2943 11.139 19.2943 12.3359C19.2943 14.8021 17.8706 16.875 14.468 17.4735C15.0351 18.0333 15.3874 18.8104 15.3874 19.6694V22.3842C15.4067 22.6014 15.3874 22.8162 15.7494 22.8162C20.0231 21.3755 23.0998 17.3383 23.0998 12.5821C23.0998 6.61678 18.2639 1.78809 12.301 1.78809Z" fill="#4A82B6"/>
</svg>
