<svg width="24" height="24" viewBox="0 0 24 24" fill="none" xmlns="http://www.w3.org/2000/svg">
<g clip-path="url(#clip0_1269_27098)">
<mask id="mask0_1269_27098" style="mask-type:luminance" maskUnits="userSpaceOnUse" x="2" y="2" width="20" height="20">
<path d="M19.5 2H4.5C3.11929 2 2 3.11929 2 4.5V19.5C2 20.8807 3.11929 22 4.5 22H19.5C20.8807 22 22 20.8807 22 19.5V4.5C22 3.11929 20.8807 2 19.5 2Z" fill="white"/>
</mask>
<g mask="url(#mask0_1269_27098)">
<path d="M19.5 2H4.5C3.11929 2 2 3.11929 2 4.5V19.5C2 20.8807 3.11929 22 4.5 22H19.5C20.8807 22 22 20.8807 22 19.5V4.5C22 3.11929 20.8807 2 19.5 2Z" fill="url(#paint0_linear_1269_27098)"/>
<path d="M12.0195 10.3984C23.0544 10.3984 32 6.17487 32 0.964844C32 -4.24519 23.0544 -8.46875 12.0195 -8.46875C0.984623 -8.46875 -7.96094 -4.24519 -7.96094 0.964844C-7.96094 6.17487 0.984623 10.3984 12.0195 10.3984Z" fill="url(#paint1_linear_1269_27098)"/>
<g filter="url(#filter0_i_1269_27098)">
<path fill-rule="evenodd" clip-rule="evenodd" d="M11.5261 4.60078C8.79405 4.86002 7.09089 7.19082 7.28905 10.3992C7.41972 12.5149 8.27284 14.0012 9.7748 14.7297C10.958 15.3036 12.6545 15.3553 13.6685 14.8486C14.3896 14.4882 14.9831 13.8982 15.3442 13.1829C15.3785 13.1148 15.4155 13.0592 15.4264 13.0592C15.4524 13.0592 15.4522 14.3664 15.4262 14.8592C15.3271 16.734 14.6611 17.8134 13.3605 18.2074C12.678 18.4141 11.7137 18.4347 10.9561 18.2586C9.92753 18.0196 9.22581 17.3939 9.01148 16.5246L8.95608 16.2999L8.30819 16.2996L7.66034 16.2992L7.67351 16.4409C7.8473 18.3109 9.68273 19.5132 12.2725 19.4536C14.8151 19.395 16.2241 18.2477 16.6253 15.9092C16.7391 15.2463 16.7327 15.5706 16.7403 10.0042L16.7473 4.87919H16.0967H15.4461V5.77919C15.4461 6.31582 15.4386 6.67918 15.4276 6.67918C15.4175 6.67918 15.3635 6.59258 15.3078 6.48676C15.1708 6.22648 15.0143 6.01312 14.7799 5.76708C13.92 4.86442 12.8373 4.47635 11.5261 4.60078ZM12.5501 5.68905C14.0316 5.88478 15.0791 7.11121 15.3646 8.98418C15.6965 11.1613 14.9192 13.078 13.4035 13.8195C12.7924 14.1186 11.9967 14.1987 11.2484 14.0365C9.22062 13.5972 8.14421 11.2509 8.72819 8.54316C9.07308 6.94426 10.2342 5.79821 11.6361 5.67305C11.855 5.65351 12.3461 5.66212 12.5501 5.68905Z" fill="#66390C"/>
<path fill-rule="evenodd" clip-rule="evenodd" d="M11.5261 4.60078C8.79405 4.86002 7.09089 7.19082 7.28905 10.3992C7.41972 12.5149 8.27284 14.0012 9.7748 14.7297C10.958 15.3036 12.6545 15.3553 13.6685 14.8486C14.3896 14.4882 14.9831 13.8982 15.3442 13.1829C15.3785 13.1148 15.4155 13.0592 15.4264 13.0592C15.4524 13.0592 15.4522 14.3664 15.4262 14.8592C15.3271 16.734 14.6611 17.8134 13.3605 18.2074C12.678 18.4141 11.7137 18.4347 10.9561 18.2586C9.92753 18.0196 9.22581 17.3939 9.01148 16.5246L8.95608 16.2999L8.30819 16.2996L7.66034 16.2992L7.67351 16.4409C7.8473 18.3109 9.68273 19.5132 12.2725 19.4536C14.8151 19.395 16.2241 18.2477 16.6253 15.9092C16.7391 15.2463 16.7327 15.5706 16.7403 10.0042L16.7473 4.87919H16.0967H15.4461V5.77919C15.4461 6.31582 15.4386 6.67918 15.4276 6.67918C15.4175 6.67918 15.3635 6.59258 15.3078 6.48676C15.1708 6.22648 15.0143 6.01312 14.7799 5.76708C13.92 4.86442 12.8373 4.47635 11.5261 4.60078ZM12.5501 5.68905C14.0316 5.88478 15.0791 7.11121 15.3646 8.98418C15.6965 11.1613 14.9192 13.078 13.4035 13.8195C12.7924 14.1186 11.9967 14.1987 11.2484 14.0365C9.22062 13.5972 8.14421 11.2509 8.72819 8.54316C9.07308 6.94426 10.2342 5.79821 11.6361 5.67305C11.855 5.65351 12.3461 5.66212 12.5501 5.68905Z" fill="url(#paint2_radial_1269_27098)"/>
</g>
<g filter="url(#filter1_i_1269_27098)">
<path fill-rule="evenodd" clip-rule="evenodd" d="M15.4342 13.1062C15.452 13.3443 15.4492 14.4221 15.4262 14.8592C15.3271 16.734 14.6611 17.8134 13.3605 18.2074C12.678 18.4141 11.7137 18.4347 10.9561 18.2586C9.92753 18.0196 9.22581 17.3939 9.01148 16.5246L8.95608 16.2999L7.66034 16.2992L7.67351 16.4409C7.8473 18.3109 9.68273 19.5132 12.2725 19.4536C14.8151 19.395 16.2241 18.2477 16.6253 15.9092C16.6419 15.8125 16.6559 15.7369 16.6678 15.6609C16.7375 15.2156 16.7338 14.7589 16.7403 10.0042L16.7473 4.87919H15.4461V5.77919C15.4461 6.19656 15.4416 6.5091 15.4344 6.62742C15.4341 6.63211 15.4338 6.63652 15.4335 6.64062C15.4317 6.6659 15.4297 6.67918 15.4276 6.67918C15.424 6.67918 15.415 6.66836 15.4023 6.64969C15.3998 6.64605 15.3973 6.64215 15.3946 6.63801C15.3716 6.60269 15.34 6.54793 15.3078 6.48676C15.1708 6.22648 15.0143 6.01312 14.7799 5.76708C13.92 4.86442 12.8373 4.47635 11.5261 4.60078C8.79405 4.86002 7.09089 7.19082 7.28905 10.3992C7.41972 12.5149 8.27284 14.0012 9.7748 14.7297C10.958 15.3036 12.6545 15.3553 13.6685 14.8486C14.3896 14.4882 14.9831 13.8982 15.3442 13.1829C15.3614 13.1489 15.3792 13.118 15.3941 13.0955C15.396 13.0927 15.3979 13.0899 15.3997 13.0873C15.4119 13.0698 15.4216 13.0592 15.4264 13.0592C15.429 13.0592 15.4314 13.0727 15.4335 13.0975C15.4337 13.1003 15.4339 13.1032 15.4342 13.1062ZM15.4851 4.91826V5.77919C15.4851 6.04766 15.4833 6.27293 15.48 6.43125C15.4784 6.51031 15.4764 6.57301 15.4742 6.61609C15.473 6.6375 15.4718 6.65476 15.4704 6.66699C15.4697 6.67285 15.4689 6.67887 15.4676 6.68394C15.4671 6.68617 15.466 6.69047 15.4639 6.695C15.4628 6.69715 15.4605 6.7016 15.4563 6.70601C15.452 6.71051 15.4423 6.71824 15.4276 6.71824C15.4148 6.71824 15.4057 6.71219 15.4032 6.71047C15.3994 6.70785 15.3962 6.70492 15.3941 6.70277C15.3897 6.69836 15.3853 6.69293 15.3812 6.6875C15.3729 6.67637 15.3628 6.66113 15.3517 6.64332C15.3293 6.60742 15.3014 6.55848 15.2733 6.50496C15.1382 6.24832 14.9839 6.03785 14.7516 5.79402C13.9005 4.90059 12.8298 4.5163 11.5298 4.63966C10.1747 4.76825 9.07612 5.41013 8.3403 6.41711C7.60413 7.42457 7.2294 8.79988 7.32804 10.3968C7.45808 12.5029 8.30612 13.9739 9.79183 14.6945C10.3776 14.9787 11.092 15.1341 11.7862 15.1553C12.4808 15.1765 13.1516 15.0632 13.651 14.8136C14.3647 14.457 14.9521 13.873 15.3094 13.1653C15.3271 13.1302 15.3456 13.0979 15.3616 13.0739C15.3694 13.0621 15.3773 13.0513 15.3844 13.0432C15.388 13.0391 15.3923 13.0347 15.3971 13.0309C15.4 13.0287 15.4109 13.0201 15.4264 13.0201C15.4485 13.0201 15.4591 13.0369 15.4607 13.0395C15.4638 13.0444 15.4653 13.0491 15.4661 13.0515C15.4677 13.0569 15.4688 13.063 15.4696 13.0683C15.4712 13.0796 15.4726 13.0952 15.4739 13.1137C15.4764 13.1513 15.4784 13.2049 15.48 13.2702C15.4833 13.4009 15.4849 13.58 15.4848 13.7744C15.4848 14.1629 15.4782 14.6137 15.4652 14.8612C15.4154 15.8024 15.2233 16.5481 14.8771 17.1091C14.5304 17.6712 14.0307 18.0452 13.3718 18.2448C12.6822 18.4537 11.7109 18.4741 10.9473 18.2967C9.90749 18.0551 9.19214 17.4204 8.97355 16.5339L8.92546 16.3389L7.70319 16.3383L7.71241 16.4373C7.88339 18.2772 9.69105 19.4739 12.2716 19.4145C13.5375 19.3854 14.5159 19.0853 15.2272 18.5061C15.9382 17.9271 16.3873 17.0653 16.5868 15.9026C16.6033 15.8066 16.6172 15.7316 16.629 15.6562C16.6983 15.2146 16.6948 14.7616 16.7012 10.0041L16.7082 4.91826H15.4851Z" fill="url(#paint3_linear_1269_27098)"/>
</g>
<g filter="url(#filter2_i_1269_27098)">
<path fill-rule="evenodd" clip-rule="evenodd" d="M11.6326 5.63432C11.8541 5.61454 12.3481 5.62316 12.5551 5.6505C14.0592 5.8492 15.116 7.09431 15.4032 8.97845C15.7367 11.1658 14.9568 13.1031 13.4206 13.8548C12.8006 14.1581 11.9958 14.2386 11.24 14.0749C9.18173 13.6289 8.10376 11.2529 8.68994 8.53509C9.03763 6.9231 10.2102 5.7613 11.6326 5.63432ZM15.3645 8.98435C15.079 7.11138 14.0315 5.88495 12.55 5.68922C12.3461 5.66229 11.8549 5.65368 11.636 5.67322C10.2342 5.79838 9.07298 6.94443 8.72814 8.54333C8.14415 11.251 9.22052 13.5974 11.2483 14.0367C11.9967 14.1988 12.7924 14.1187 13.4035 13.8197C14.9191 13.0781 15.6965 11.1615 15.3645 8.98435Z" fill="url(#paint4_linear_1269_27098)"/>
</g>
<mask id="mask1_1269_27098" style="mask-type:alpha" maskUnits="userSpaceOnUse" x="7" y="4" width="10" height="16">
<path fill-rule="evenodd" clip-rule="evenodd" d="M11.5261 4.60078C8.79405 4.86002 7.09089 7.19082 7.28905 10.3992C7.41972 12.5149 8.27284 14.0012 9.7748 14.7297C10.958 15.3036 12.6545 15.3553 13.6685 14.8486C14.3896 14.4882 14.9831 13.8982 15.3442 13.1829C15.3785 13.1148 15.4155 13.0592 15.4264 13.0592C15.4524 13.0592 15.4522 14.3664 15.4262 14.8592C15.3271 16.734 14.6611 17.8134 13.3605 18.2074C12.678 18.4141 11.7137 18.4347 10.9561 18.2586C9.92753 18.0196 9.22581 17.3939 9.01148 16.5246L8.95608 16.2999L8.30819 16.2996L7.66034 16.2992L7.67351 16.4409C7.8473 18.3109 9.68273 19.5132 12.2725 19.4536C14.8151 19.395 16.2241 18.2477 16.6253 15.9092C16.7391 15.2463 16.7327 15.5706 16.7403 10.0042L16.7473 4.87919H16.0967H15.4461V5.77919C15.4461 6.31582 15.4386 6.67918 15.4276 6.67918C15.4175 6.67918 15.3635 6.59258 15.3078 6.48676C15.1708 6.22648 15.0143 6.01312 14.7799 5.76708C13.92 4.86442 12.8373 4.47635 11.5261 4.60078ZM12.5501 5.68905C14.0316 5.88478 15.0791 7.11121 15.3646 8.98418C15.6965 11.1613 14.9192 13.078 13.4035 13.8195C12.7924 14.1186 11.9967 14.1987 11.2484 14.0365C9.22062 13.5972 8.14421 11.2509 8.72819 8.54316C9.07308 6.94426 10.2342 5.79821 11.6361 5.67305C11.855 5.65351 12.3461 5.66212 12.5501 5.68905Z" fill="#66390C"/>
<path fill-rule="evenodd" clip-rule="evenodd" d="M11.5261 4.60078C8.79405 4.86002 7.09089 7.19082 7.28905 10.3992C7.41972 12.5149 8.27284 14.0012 9.7748 14.7297C10.958 15.3036 12.6545 15.3553 13.6685 14.8486C14.3896 14.4882 14.9831 13.8982 15.3442 13.1829C15.3785 13.1148 15.4155 13.0592 15.4264 13.0592C15.4524 13.0592 15.4522 14.3664 15.4262 14.8592C15.3271 16.734 14.6611 17.8134 13.3605 18.2074C12.678 18.4141 11.7137 18.4347 10.9561 18.2586C9.92753 18.0196 9.22581 17.3939 9.01148 16.5246L8.95608 16.2999L8.30819 16.2996L7.66034 16.2992L7.67351 16.4409C7.8473 18.3109 9.68273 19.5132 12.2725 19.4536C14.8151 19.395 16.2241 18.2477 16.6253 15.9092C16.7391 15.2463 16.7327 15.5706 16.7403 10.0042L16.7473 4.87919H16.0967H15.4461V5.77919C15.4461 6.31582 15.4386 6.67918 15.4276 6.67918C15.4175 6.67918 15.3635 6.59258 15.3078 6.48676C15.1708 6.22648 15.0143 6.01312 14.7799 5.76708C13.92 4.86442 12.8373 4.47635 11.5261 4.60078ZM12.5501 5.68905C14.0316 5.88478 15.0791 7.11121 15.3646 8.98418C15.6965 11.1613 14.9192 13.078 13.4035 13.8195C12.7924 14.1186 11.9967 14.1987 11.2484 14.0365C9.22062 13.5972 8.14421 11.2509 8.72819 8.54316C9.07308 6.94426 10.2342 5.79821 11.6361 5.67305C11.855 5.65351 12.3461 5.66212 12.5501 5.68905Z" fill="url(#paint5_radial_1269_27098)"/>
</mask>
<g mask="url(#mask1_1269_27098)">
<path d="M11.9805 10.3203C23.0154 10.3203 31.9609 6.09675 31.9609 0.886719C31.9609 -4.32331 23.0154 -8.54688 11.9805 -8.54688C0.94556 -8.54688 -8 -4.32331 -8 0.886719C-8 6.09675 0.94556 10.3203 11.9805 10.3203Z" fill="url(#paint6_linear_1269_27098)"/>
</g>
</g>
<path d="M19.5 2.04883H4.5C3.14626 2.04883 2.04883 3.14626 2.04883 4.5V19.5C2.04883 20.8537 3.14626 21.9512 4.5 21.9512H19.5C20.8537 21.9512 21.9512 20.8537 21.9512 19.5V4.5C21.9512 3.14626 20.8537 2.04883 19.5 2.04883Z" stroke="url(#paint7_linear_1269_27098)" stroke-width="0.0976562"/>
</g>
<defs>
<filter id="filter0_i_1269_27098" x="7.27344" y="4.57812" width="9.47382" height="14.8774" filterUnits="userSpaceOnUse" color-interpolation-filters="sRGB">
<feFlood flood-opacity="0" result="BackgroundImageFix"/>
<feBlend mode="normal" in="SourceGraphic" in2="BackgroundImageFix" result="shape"/>
<feColorMatrix in="SourceAlpha" type="matrix" values="0 0 0 0 0 0 0 0 0 0 0 0 0 0 0 0 0 0 127 0" result="hardAlpha"/>
<feOffset/>
<feGaussianBlur stdDeviation="0.390625"/>
<feComposite in2="hardAlpha" operator="arithmetic" k2="-1" k3="1"/>
<feColorMatrix type="matrix" values="0 0 0 0 0 0 0 0 0 0 0 0 0 0 0 0 0 0 0.25 0"/>
<feBlend mode="normal" in2="shape" result="effect1_innerShadow_1269_27098"/>
</filter>
<filter id="filter1_i_1269_27098" x="7.27344" y="4.57812" width="9.47382" height="14.8774" filterUnits="userSpaceOnUse" color-interpolation-filters="sRGB">
<feFlood flood-opacity="0" result="BackgroundImageFix"/>
<feBlend mode="normal" in="SourceGraphic" in2="BackgroundImageFix" result="shape"/>
<feColorMatrix in="SourceAlpha" type="matrix" values="0 0 0 0 0 0 0 0 0 0 0 0 0 0 0 0 0 0 127 0" result="hardAlpha"/>
<feOffset/>
<feGaussianBlur stdDeviation="0.390625"/>
<feComposite in2="hardAlpha" operator="arithmetic" k2="-1" k3="1"/>
<feColorMatrix type="matrix" values="0 0 0 0 0 0 0 0 0 0 0 0 0 0 0 0 0 0 0.25 0"/>
<feBlend mode="normal" in2="shape" result="effect1_innerShadow_1269_27098"/>
</filter>
<filter id="filter2_i_1269_27098" x="8.53113" y="5.62354" width="6.94824" height="8.53467" filterUnits="userSpaceOnUse" color-interpolation-filters="sRGB">
<feFlood flood-opacity="0" result="BackgroundImageFix"/>
<feBlend mode="normal" in="SourceGraphic" in2="BackgroundImageFix" result="shape"/>
<feColorMatrix in="SourceAlpha" type="matrix" values="0 0 0 0 0 0 0 0 0 0 0 0 0 0 0 0 0 0 127 0" result="hardAlpha"/>
<feOffset/>
<feGaussianBlur stdDeviation="0.390625"/>
<feComposite in2="hardAlpha" operator="arithmetic" k2="-1" k3="1"/>
<feColorMatrix type="matrix" values="0 0 0 0 0 0 0 0 0 0 0 0 0 0 0 0 0 0 0.25 0"/>
<feBlend mode="normal" in2="shape" result="effect1_innerShadow_1269_27098"/>
</filter>
<linearGradient id="paint0_linear_1269_27098" x1="12" y1="2" x2="12" y2="22" gradientUnits="userSpaceOnUse">
<stop stop-color="#EFEDDE"/>
<stop offset="1" stop-color="#E6E1C3"/>
</linearGradient>
<linearGradient id="paint1_linear_1269_27098" x1="12" y1="10.3984" x2="12" y2="2.70313" gradientUnits="userSpaceOnUse">
<stop stop-color="white" stop-opacity="0.63"/>
<stop offset="1" stop-color="white" stop-opacity="0"/>
</linearGradient>
<radialGradient id="paint2_radial_1269_27098" cx="0" cy="0" r="1" gradientUnits="userSpaceOnUse" gradientTransform="translate(12 10.1055) rotate(90) scale(5.89844 6.80918)">
<stop stop-color="#9A5610"/>
<stop offset="1" stop-color="#6F3E0D"/>
</radialGradient>
<linearGradient id="paint3_linear_1269_27098" x1="12.0103" y1="4.57812" x2="12.0103" y2="19.4557" gradientUnits="userSpaceOnUse">
<stop stop-color="white" stop-opacity="0.41"/>
<stop offset="0.723958" stop-opacity="0.34"/>
<stop offset="0.77414" stop-color="white" stop-opacity="0.34"/>
<stop offset="1" stop-color="#111111" stop-opacity="0.344532"/>
</linearGradient>
<linearGradient id="paint4_linear_1269_27098" x1="12.0052" y1="5.62354" x2="12.0052" y2="14.158" gradientUnits="userSpaceOnUse">
<stop stop-opacity="0.28"/>
<stop offset="1" stop-color="white" stop-opacity="0.35"/>
</linearGradient>
<radialGradient id="paint5_radial_1269_27098" cx="0" cy="0" r="1" gradientUnits="userSpaceOnUse" gradientTransform="translate(12 10.1055) rotate(90) scale(5.89844 6.80918)">
<stop stop-color="#9A5610"/>
<stop offset="1" stop-color="#6F3E0D"/>
</radialGradient>
<linearGradient id="paint6_linear_1269_27098" x1="11.9609" y1="10.3203" x2="11.9609" y2="2.625" gradientUnits="userSpaceOnUse">
<stop stop-color="white" stop-opacity="0.17"/>
<stop offset="1" stop-color="white" stop-opacity="0"/>
</linearGradient>
<linearGradient id="paint7_linear_1269_27098" x1="12" y1="2" x2="12" y2="22" gradientUnits="userSpaceOnUse">
<stop stop-color="#E4E3D6"/>
<stop offset="1" stop-color="#D5D1B6"/>
</linearGradient>
<clipPath id="clip0_1269_27098">
<rect width="20" height="20" fill="white" transform="translate(2 2)"/>
</clipPath>
</defs>
</svg>
