<svg width="24" height="24" viewBox="0 0 24 24" fill="none" xmlns="http://www.w3.org/2000/svg">
<path fill-rule="evenodd" clip-rule="evenodd" d="M21.3708 11.5253C21.3706 11.6829 21.3704 11.8406 21.3704 11.9985C21.3704 12.1751 21.3707 12.3515 21.3709 12.5277C21.3726 13.6424 21.3743 14.7506 21.3095 15.8657C21.2368 17.3657 20.897 18.6946 19.7978 19.7939C18.7009 20.8907 17.3696 21.2329 15.8696 21.3056C14.7358 21.3694 13.6093 21.3681 12.4756 21.3669C12.3181 21.3667 12.1603 21.3665 12.0025 21.3665C11.8449 21.3665 11.6874 21.3667 11.5301 21.3669C10.398 21.3681 9.27116 21.3694 8.13527 21.3056C6.63527 21.2329 5.30636 20.8931 4.20714 19.7939C3.11027 18.697 2.76808 17.3657 2.69542 15.8657C2.63163 14.7319 2.63288 13.6035 2.63414 12.471C2.63431 12.3136 2.63449 12.1561 2.63449 11.9985C2.63449 11.841 2.63431 11.6835 2.63414 11.5262C2.63288 10.3941 2.63163 9.26723 2.69542 8.13136C2.76808 6.63136 3.10792 5.30245 4.20714 4.20324C5.30402 3.10636 6.63527 2.76417 8.13527 2.69152C9.26905 2.62773 10.3956 2.62898 11.5292 2.63023C11.6868 2.63041 11.8445 2.63058 12.0025 2.63058C12.16 2.63058 12.3175 2.63041 12.4748 2.63023C13.6069 2.62898 14.7338 2.62773 15.8696 2.69152C17.3696 2.76417 18.6985 3.10402 19.7978 4.20324C20.8946 5.30011 21.2368 6.63136 21.3095 8.13136C21.3733 9.26514 21.372 10.3917 21.3708 11.5253ZM7.19308 11.9985C7.19308 14.6587 9.33995 16.8056 12.0001 16.8056C14.6603 16.8056 16.8071 14.6587 16.8071 11.9985C16.8071 9.33839 14.6603 7.19152 12.0001 7.19152C9.33995 7.19152 7.19308 9.33839 7.19308 11.9985ZM15.8814 6.99464C15.8814 7.61574 16.3829 8.1173 17.004 8.1173C17.6251 8.1173 18.1243 7.61808 18.1267 6.99464C18.1267 6.37355 17.6251 5.87199 17.004 5.87199C16.3829 5.87199 15.8814 6.37355 15.8814 6.99464ZM8.87614 11.9984C8.87614 10.2781 10.28 8.87419 12.0004 8.87419C13.7207 8.87419 15.1246 10.2781 15.1246 11.9984C15.1246 13.7187 13.7207 15.1226 12.0004 15.1226C10.28 15.1226 8.87614 13.7187 8.87614 11.9984Z" fill="url(#paint0_linear_1269_27005)"/>
<defs>
<linearGradient id="paint0_linear_1269_27005" x1="19.8001" y1="4.19855" x2="4.20014" y2="19.7985" gradientUnits="userSpaceOnUse">
<stop stop-color="#854CC3"/>
<stop offset="0.53794" stop-color="#EC3529"/>
<stop offset="1" stop-color="#FDDC56"/>
</linearGradient>
</defs>
</svg>
