<svg width="24" height="24" viewBox="0 0 24 24" fill="none" xmlns="http://www.w3.org/2000/svg">
<rect x="2" y="2" width="20" height="20" rx="5" fill="url(#paint0_linear_1269_27121)"/>
<g filter="url(#filter0_d_1269_27121)">
<path d="M17.8896 8.52115C17.7067 7.17621 16.5217 6.11639 15.117 5.91103C14.88 5.87626 13.9821 5.75 11.9021 5.75H11.8866C9.80599 5.75 9.35966 5.87626 9.12265 5.91103C7.75709 6.1107 6.51003 7.06305 6.20745 8.4238C6.06193 9.094 6.04641 9.83698 6.07341 10.5185C6.11198 11.4959 6.11943 12.4715 6.20918 13.4449C6.27123 14.0917 6.37945 14.7331 6.53301 15.3644C6.82061 16.5307 7.98487 17.5012 9.12554 17.8972C10.3477 18.3102 11.66 18.3787 12.9185 18.0952C13.0568 18.0633 13.1938 18.0263 13.3292 17.9843C13.6347 17.8881 13.993 17.7806 14.2565 17.5917C14.2601 17.589 14.2631 17.5856 14.2652 17.5816C14.2673 17.5777 14.2684 17.5733 14.2686 17.5689V16.6257C14.2685 16.6216 14.2675 16.6175 14.2657 16.6137C14.2638 16.61 14.2611 16.6067 14.2578 16.6042C14.2545 16.6016 14.2506 16.5998 14.2465 16.5989C14.2424 16.598 14.2382 16.598 14.2341 16.5989C13.4275 16.7895 12.6014 16.8849 11.7727 16.8834C10.3462 16.8834 9.96248 16.2138 9.85263 15.935C9.76436 15.6943 9.70826 15.4429 9.68578 15.1875C9.68555 15.1832 9.68638 15.1789 9.68815 15.175C9.68988 15.171 9.69255 15.1676 9.69591 15.1648C9.69928 15.1621 9.70325 15.1602 9.70749 15.1594C9.71169 15.1584 9.71609 15.1586 9.72029 15.1596C10.5134 15.3489 11.326 15.4443 12.1414 15.444C12.3376 15.444 12.5331 15.444 12.7293 15.439C13.5496 15.4162 14.4141 15.3747 15.2211 15.2188C15.2412 15.2148 15.2614 15.2114 15.2787 15.2063C16.5516 14.9645 17.763 14.2055 17.8861 12.2838C17.8907 12.2081 17.9023 11.4914 17.9023 11.4128C17.9028 11.146 17.9891 9.52013 17.8896 8.52115ZM15.9304 13.3164H14.5919V10.0736C14.5919 9.39095 14.3043 9.04281 13.7192 9.04281C13.0761 9.04281 12.754 9.45468 12.754 10.2682V12.0432H11.4236V10.2682C11.4236 9.45468 11.1008 9.04281 10.4578 9.04281C9.87618 9.04281 9.5857 9.39095 9.5851 10.0736V13.3164H8.24774V9.97521C8.24774 9.29258 8.42394 8.75018 8.77637 8.34817C9.13993 7.94709 9.61676 7.74118 10.2087 7.74118C10.8938 7.74118 11.4114 8.00173 11.7566 8.52224L12.0896 9.07526L12.4233 8.52224C12.7684 8.00173 13.2861 7.74118 13.9701 7.74118C14.5614 7.74118 15.0382 7.94709 15.4029 8.34817C15.7553 8.74981 15.9315 9.29214 15.9315 9.97521L15.9304 13.3164Z" fill="white"/>
</g>
<defs>
<filter id="filter0_d_1269_27121" x="5.28125" y="5.28125" width="13.4375" height="14.0796" filterUnits="userSpaceOnUse" color-interpolation-filters="sRGB">
<feFlood flood-opacity="0" result="BackgroundImageFix"/>
<feColorMatrix in="SourceAlpha" type="matrix" values="0 0 0 0 0 0 0 0 0 0 0 0 0 0 0 0 0 0 127 0" result="hardAlpha"/>
<feOffset dy="0.3125"/>
<feGaussianBlur stdDeviation="0.390625"/>
<feComposite in2="hardAlpha" operator="out"/>
<feColorMatrix type="matrix" values="0 0 0 0 0.309804 0 0 0 0 0.141176 0 0 0 0 0.701961 0 0 0 0.6 0"/>
<feBlend mode="normal" in2="BackgroundImageFix" result="effect1_dropShadow_1269_27121"/>
<feBlend mode="normal" in="SourceGraphic" in2="effect1_dropShadow_1269_27121" result="shape"/>
</filter>
<linearGradient id="paint0_linear_1269_27121" x1="12" y1="2" x2="12" y2="22" gradientUnits="userSpaceOnUse">
<stop stop-color="#6C6CFF"/>
<stop offset="1" stop-color="#4E22B1"/>
</linearGradient>
</defs>
</svg>
