<svg width="24" height="24" viewBox="0 0 24 24" fill="none" xmlns="http://www.w3.org/2000/svg">
<g clip-path="url(#clip0_1269_27071)">
<path fill-rule="evenodd" clip-rule="evenodd" d="M12 2C17.5229 2 22 6.47715 22 12C22 17.5229 17.5229 22 12 22C6.47715 22 2 17.5229 2 12C2 6.47715 6.47715 2 12 2Z" fill="black"/>
<path d="M12.7382 11.9998C12.7382 13.807 11.2831 15.2721 9.48812 15.2721C7.69312 15.2721 6.23816 13.8075 6.23816 11.9998C6.23816 10.1921 7.69324 8.72754 9.48812 8.72754C11.283 8.72754 12.7382 10.1925 12.7382 11.9998ZM16.3035 11.9998C16.3035 13.7011 15.576 15.0802 14.6785 15.0802C13.7811 15.0802 13.0535 13.7006 13.0535 11.9998C13.0535 10.2989 13.7811 8.91945 14.6785 8.91945C15.576 8.91945 16.3035 10.2989 16.3035 11.9998ZM17.7618 11.9998C17.7618 13.5241 17.5059 14.7596 17.1903 14.7596C16.8747 14.7596 16.6187 13.5236 16.6187 11.9998C16.6187 10.476 16.8747 9.23992 17.1904 9.23992C17.5061 9.23992 17.7618 10.4756 17.7618 11.9998Z" fill="white"/>
</g>
<defs>
<clipPath id="clip0_1269_27071">
<rect width="20" height="20" fill="white" transform="translate(2 2)"/>
</clipPath>
</defs>
</svg>
