<svg width="24" height="24" viewBox="0 0 24 24" fill="none" xmlns="http://www.w3.org/2000/svg">
<path d="M6.50893 2.2959H17.4911C19.8176 2.2959 21.704 4.18179 21.704 6.50881V17.4909C21.704 19.8175 19.8181 21.7038 17.4911 21.7038H6.50893C4.18236 21.7038 2.29602 19.8175 2.29602 17.4909V6.50881C2.29602 4.18223 4.18236 2.2959 6.50893 2.2959Z" fill="#3668FF"/>
<path d="M17.4911 2.59206C19.6542 2.59206 21.4079 4.34583 21.4079 6.50893V17.4911C21.4079 19.6542 19.6542 21.4079 17.4911 21.4079H6.50893C4.34583 21.4079 2.59206 19.6542 2.59206 17.4911V6.50893C2.59206 4.34583 4.34583 2.59206 6.50893 2.59206H17.4911ZM17.4911 2H6.50893C4.0189 2 2.00045 4.0189 2 6.50893V17.4911C2 19.9811 4.0189 21.9996 6.50893 22H17.4911C19.9811 22 21.9996 19.9811 22 17.4911V6.50893C22 4.0189 19.9811 2.00045 17.4911 2Z" fill="#3668FF"/>
<path d="M12.8846 6.31543H7.77783V17.6832H10.8268C11.1103 17.6832 11.34 17.4534 11.34 17.1699V14.9858H12.1049C15.8378 14.9858 17.3649 12.8822 17.3649 10.4217C17.364 7.38489 15.0567 6.31543 12.8846 6.31543Z" fill="white"/>
</svg>
