<svg width="24" height="24" viewBox="0 0 24 24" fill="none" xmlns="http://www.w3.org/2000/svg">
<g clip-path="url(#clip0_1269_27036)">
<path d="M12 2C6.47709 2 2 6.47709 2 12V21.9908H11.581C11.7199 21.9965 11.8597 22 12 22C17.5229 22 22 17.5229 22 12C22 6.47709 17.5229 2 12 2Z" fill="#FF5900"/>
<path d="M12 4.32129C7.75945 4.32129 4.32138 7.75936 4.32138 11.9999V16.5769V19.6705V21.9907H7.39422V12.008C7.39422 9.47249 9.44949 7.41606 11.985 7.41606C14.5205 7.41606 16.5758 9.47249 16.5758 12.008C16.5758 14.5435 14.5205 16.5988 11.985 16.5988C11.058 16.5988 10.1948 16.3233 9.47318 15.8508V19.151C9.95672 19.4486 11.0607 19.6587 12.3555 19.6693C16.4309 19.4834 19.6786 16.1212 19.6786 11.9999C19.6786 7.75936 16.2406 4.32129 12 4.32129ZM11.678 19.6705C11.7846 19.6749 11.8923 19.6786 12 19.6786C12.1134 19.6786 12.226 19.6753 12.3382 19.6705H11.678Z" fill="white"/>
</g>
<defs>
<clipPath id="clip0_1269_27036">
<rect width="20" height="20" fill="white" transform="translate(2 2)"/>
</clipPath>
</defs>
</svg>
