<svg width="24" height="24" viewBox="0 0 24 24" fill="none" xmlns="http://www.w3.org/2000/svg">
<g clip-path="url(#clip0_1269_27127)">
<path d="M2.05546 14.3304C3.27208 18.387 7.03484 21.3451 11.4875 21.3451C16.9253 21.3451 21.3336 16.9368 21.3336 11.499C21.3336 6.06114 16.9253 1.65283 11.4875 1.65283C6.26961 1.65283 1.99977 5.71222 1.66254 10.8448C2.30069 11.9147 2.54838 12.5765 2.05484 14.3304H2.05546Z" fill="url(#paint0_linear_1269_27127)"/>
<path d="M10.98 9.03247L10.981 9.08108L8.57174 12.5811C8.18158 12.5632 7.7902 12.6319 7.41851 12.7848C7.2567 12.8505 7.10222 12.933 6.95758 13.0309L1.66682 10.8503C1.66682 10.8503 1.54435 12.8645 2.05451 14.3654L5.79482 15.9088C5.97943 16.7482 6.55789 17.4842 7.40774 17.838C8.07634 18.1158 8.82786 18.1169 9.49726 17.841C10.1667 17.5651 10.6992 17.0348 10.9779 16.3666C11.1266 16.0107 11.1983 15.6273 11.1884 15.2417L14.6324 12.7786L14.717 12.7802C16.78 12.7802 18.457 11.0983 18.457 9.03247C18.457 6.96662 16.7831 5.29093 14.717 5.28662C12.6548 5.28662 10.977 6.96662 10.977 9.03247H10.98ZM10.4016 16.1248C9.9542 17.2017 8.71974 17.7085 7.64681 17.2614C7.1707 17.0613 6.78478 16.6931 6.56251 16.2269L7.78005 16.7315C7.96813 16.8098 8.1698 16.8503 8.37353 16.8506C8.57726 16.8509 8.77906 16.8111 8.96739 16.7334C9.15572 16.6557 9.3269 16.5417 9.47115 16.3978C9.61539 16.2539 9.72987 16.0831 9.80805 15.8949C9.96635 15.5148 9.96729 15.0874 9.81065 14.7065C9.65401 14.3257 9.35261 14.0226 8.97266 13.8639L7.71112 13.3423C8.19666 13.1577 8.74866 13.1515 9.26497 13.366C9.78805 13.5823 10.188 13.9897 10.4022 14.5106C10.6164 15.0315 10.6151 15.606 10.3991 16.1248M14.7204 11.5294C14.0593 11.5276 13.4258 11.2639 12.9588 10.796C12.4918 10.3281 12.2292 9.69417 12.2287 9.03308C12.2294 8.3721 12.492 7.73834 12.959 7.27058C13.426 6.80282 14.0594 6.53918 14.7204 6.53739C15.3814 6.53902 16.0149 6.80259 16.4821 7.27036C16.9492 7.73814 17.2119 8.37199 17.2127 9.03308C17.2121 9.69428 16.9495 10.3283 16.4823 10.7962C16.0151 11.2641 15.3815 11.5278 14.7204 11.5294ZM12.8533 9.02908C12.8529 8.53237 13.0497 8.05582 13.4005 7.70417C13.7513 7.35251 14.2273 7.15451 14.724 7.1537C15.7564 7.1537 16.596 7.9937 16.596 9.02908C16.5963 9.5259 16.3992 10.0025 16.0482 10.354C15.6971 10.7056 15.2209 10.9034 14.724 10.9039C14.2274 10.9031 13.7513 10.7052 13.4005 10.3537C13.0497 10.0022 12.853 9.52574 12.8533 9.02908Z" fill="white"/>
</g>
<defs>
<linearGradient id="paint0_linear_1269_27127" x1="11.3463" y1="1.49899" x2="11.3463" y2="21.6528" gradientUnits="userSpaceOnUse">
<stop stop-color="#111D2E"/>
<stop offset="0.212" stop-color="#051839"/>
<stop offset="0.407" stop-color="#0A1B48"/>
<stop offset="0.581" stop-color="#132E62"/>
<stop offset="0.738" stop-color="#144B7E"/>
<stop offset="0.873" stop-color="#136497"/>
<stop offset="1" stop-color="#1387B8"/>
</linearGradient>
<clipPath id="clip0_1269_27127">
<rect width="20" height="20" fill="white" transform="translate(1.5 1.5)"/>
</clipPath>
</defs>
</svg>
