<svg width="24" height="24" viewBox="0 0 24 24" fill="none" xmlns="http://www.w3.org/2000/svg">
<path d="M2 12C2 6.47715 6.47715 2 12 2C17.5228 2 22 6.47715 22 12C22 17.5228 17.5228 22 12 22C6.47715 22 2 17.5228 2 12Z" fill="black"/>
<path d="M7.4172 8.32568H7.44552C7.66158 8.57354 7.90582 8.79306 8.13597 9.03029L9.70097 10.5953V10.6236C8.94333 11.3778 8.18908 12.1391 7.43136 12.8932C6.6701 12.1355 5.91238 11.3743 5.15112 10.6165C5.19014 10.5422 5.26443 10.4926 5.32108 10.4324C6.01861 9.72782 6.72675 9.03383 7.4172 8.32568ZM11.9848 8.32568H12.0131C12.0344 8.35755 12.0556 8.38588 12.0839 8.4142C12.8168 9.14005 13.5392 9.87653 14.2792 10.5988C14.2614 10.6413 14.2225 10.6697 14.1906 10.7015C13.4578 11.4309 12.7283 12.1638 11.9954 12.8932C11.2306 12.1391 10.4799 11.3707 9.7116 10.6201C10.4552 9.84466 11.2377 9.09756 11.9848 8.32568ZM16.5523 8.32568H16.5806C16.7223 8.49564 16.8887 8.64081 17.0409 8.80014C17.6145 9.37374 18.1847 9.9438 18.7582 10.5174C18.7866 10.5493 18.8326 10.5776 18.8432 10.6236C18.0748 11.3707 17.3313 12.1461 16.5594 12.8932L14.3818 10.7157C14.3464 10.6767 14.3004 10.6484 14.2827 10.5988C14.6686 10.2235 15.044 9.83758 15.4264 9.45872C15.8017 9.07986 16.1841 8.71162 16.5523 8.32568ZM9.74346 15.1416C10.4906 14.3945 11.2412 13.6474 11.9883 12.8968L12.0201 12.9109C12.7707 13.6651 13.5214 14.4193 14.2791 15.1664C14.2544 15.223 14.2013 15.2549 14.1622 15.3009C13.617 15.8427 13.0717 16.3915 12.5264 16.9332C12.3494 17.1032 12.1794 17.2944 11.9989 17.4537C11.7404 17.22 11.5032 16.958 11.2517 16.7172C10.742 16.2074 10.2356 15.6975 9.72222 15.1912C9.7293 15.177 9.73638 15.1558 9.74346 15.1416Z" fill="white" stroke="black" stroke-width="0.00332829"/>
</svg>
