<svg width="24" height="24" viewBox="0 0 24 24" fill="none" xmlns="http://www.w3.org/2000/svg">
<path d="M12.0007 1.2002C6.03604 1.2002 1.20068 6.03555 1.20068 12.0002C1.20068 17.9648 6.03604 22.8002 12.0007 22.8002C17.9654 22.8002 22.8007 17.9648 22.8007 12.0002C22.8007 6.03552 17.9654 1.2002 12.0007 1.2002Z" fill="black"/>
<path d="M13.9833 11.0812C14.6215 11.5399 15.3878 11.7862 16.1737 11.7852V10.2072C16.0189 10.2072 15.8649 10.1912 15.7137 10.1588V11.4004C14.9277 11.4016 14.1612 11.1554 13.5229 10.6968V13.916C13.5229 15.5264 12.2221 16.8316 10.6177 16.8316C10.0415 16.8325 9.47818 16.6607 9.00049 16.3384C9.27028 16.6164 9.59317 16.8373 9.95 16.9881C10.3068 17.1388 10.6903 17.2163 11.0777 17.216C12.6821 17.216 13.9833 15.9108 13.9833 14.3V11.0816V11.0812ZM14.5505 9.49C14.2258 9.13448 14.0265 8.68234 13.9833 8.2028V8H13.5473C13.6008 8.30478 13.7177 8.59492 13.8906 8.8516C14.0634 9.10829 14.2882 9.32579 14.5505 9.49ZM10.0153 15.1032C9.83886 14.871 9.74358 14.5872 9.74409 14.2956C9.74381 14.0863 9.79288 13.8799 9.88732 13.6931C9.98176 13.5064 10.1189 13.3445 10.2876 13.2207C10.4564 13.0968 10.6519 13.0145 10.8584 12.9804C11.0649 12.9463 11.2765 12.9614 11.4761 13.0244V11.412C11.3238 11.391 11.1702 11.382 11.0165 11.3852V12.6404C10.8169 12.5774 10.6053 12.5623 10.3988 12.5964C10.1923 12.6305 9.99676 12.7128 9.82803 12.8367C9.65931 12.9605 9.52216 13.1224 9.42772 13.3091C9.33328 13.4959 9.28421 13.7023 9.28449 13.9116C9.28449 14.4324 9.58169 14.8836 10.0153 15.1032Z" fill="#FF004F"/>
<path d="M13.6111 10.2822C14.2494 10.7408 15.0159 10.9869 15.8019 10.9858V9.74416C15.3538 9.64786 14.9471 9.41387 14.6387 9.07496C14.3764 8.91073 14.1516 8.69322 13.9788 8.43654C13.8059 8.17986 13.689 7.88973 13.6355 7.58496H12.4903V13.885C12.4897 14.2373 12.3496 14.5751 12.1005 14.8243C11.8515 15.0735 11.5138 15.2138 11.1615 15.2146C10.9564 15.2146 10.7541 15.1671 10.5706 15.0758C10.387 14.9844 10.2271 14.8518 10.1035 14.6882C9.88327 14.5766 9.69834 14.4062 9.56925 14.1958C9.44016 13.9854 9.37196 13.7434 9.37225 13.4966C9.37198 13.2873 9.42105 13.0809 9.51549 12.8941C9.60993 12.7073 9.74708 12.5455 9.9158 12.4216C10.0845 12.2978 10.2801 12.2155 10.4866 12.1814C10.6931 12.1473 10.9047 12.1623 11.1043 12.2254V10.9702C9.52825 11.003 8.26025 12.2954 8.26025 13.8854C8.26025 14.679 8.57625 15.3982 9.08865 15.9238C9.56634 16.246 10.1296 16.4178 10.7059 16.417C12.3107 16.417 13.6111 15.1114 13.6111 13.501V10.2826V10.2822Z" fill="white"/>
<path d="M15.8016 9.7434V9.4074C15.3902 9.40809 14.987 9.2926 14.6384 9.0742C14.9467 9.41323 15.3535 9.64724 15.8016 9.7434ZM13.6352 7.5842C13.6247 7.52415 13.6167 7.4637 13.6112 7.403V7.2002H12.03V13.5002C12.0295 13.8526 11.8894 14.1904 11.6404 14.4396C11.3913 14.6888 11.0535 14.8292 10.7012 14.8298C10.4934 14.8301 10.2885 14.7813 10.1032 14.6874C10.2268 14.851 10.3867 14.9837 10.5703 15.075C10.7539 15.1664 10.9561 15.2139 11.1612 15.2138C11.5134 15.2131 11.851 15.0728 12.1001 14.8236C12.3491 14.5745 12.4893 14.2369 12.49 13.8846V7.5842H13.6352ZM11.1044 10.9694V10.6122C10.9723 10.5941 10.8392 10.585 10.706 10.585C9.10117 10.585 7.80037 11.8902 7.80037 13.5006C7.79982 13.9791 7.91702 14.4503 8.14164 14.8728C8.36626 15.2952 8.6914 15.6559 9.08837 15.923C8.55636 15.378 8.25911 14.6462 8.26037 13.8846C8.26037 12.295 9.52837 11.0022 11.1044 10.9694Z" fill="#00F2EA"/>
</svg>
