<svg width="24" height="24" viewBox="0 0 24 24" fill="none" xmlns="http://www.w3.org/2000/svg">
<g clip-path="url(#clip0_1269_27134)">
<path d="M21.9818 2.01416H2.01935V22.0142H21.9818V2.01416Z" fill="#314358"/>
<path d="M15.1313 15.3529C14.8994 15.4635 14.4558 15.5598 14.125 15.5681C13.1263 15.5948 12.9325 14.8666 12.9245 14.3387V10.4555H15.4295V8.56674H12.9331V5.38916C12.9331 5.38916 11.1356 5.38916 11.1063 5.38916C11.0762 5.38916 11.0237 5.41549 11.0163 5.48229C10.9095 6.45479 10.4545 8.16166 8.56195 8.84416V10.4554H9.82445V14.531C9.82445 15.9265 10.8538 17.9091 13.5712 17.8623C14.4881 17.8466 15.5064 17.4628 15.7312 17.1315L15.1313 15.3529Z" fill="white"/>
</g>
<defs>
<clipPath id="clip0_1269_27134">
<path d="M2 12C2 6.47715 6.47715 2 12 2C17.5228 2 22 6.47715 22 12C22 17.5228 17.5228 22 12 22C6.47715 22 2 17.5228 2 12Z" fill="white"/>
</clipPath>
</defs>
</svg>
