<svg width="24" height="24" viewBox="0 0 24 24" fill="none" xmlns="http://www.w3.org/2000/svg">
<g clip-path="url(#clip0_1269_27042)">
<path d="M11.9888 21.8682C17.4448 21.8682 21.8677 17.4453 21.8677 11.9893C21.8677 6.53325 17.4448 2.11035 11.9888 2.11035C6.53282 2.11035 2.10992 6.53325 2.10992 11.9893C2.10992 17.4453 6.53282 21.8682 11.9888 21.8682Z" fill="#008CFF"/>
<path d="M16.3861 6.94336C16.7702 7.57561 16.9434 8.22674 16.9434 9.04932C16.9434 11.6729 14.6959 15.0812 12.8716 17.4745H8.70509L7.03424 7.51787L10.6824 7.17277L11.5658 14.2575C12.3912 12.9175 13.4101 10.8115 13.4101 9.37555C13.4101 8.58962 13.2749 8.05441 13.0639 7.61359L16.3861 6.94336Z" fill="white"/>
</g>
<defs>
<clipPath id="clip0_1269_27042">
<rect width="20" height="20" fill="white" transform="translate(2 2)"/>
</clipPath>
</defs>
</svg>
