<svg width="32" height="32" viewBox="0 0 32 32" fill="none" xmlns="http://www.w3.org/2000/svg">
<g id="Button">
<path d="M1 16C1 7.71573 7.71573 1 16 1C24.2843 1 31 7.71573 31 16C31 24.2843 24.2843 31 16 31C7.71573 31 1 24.2843 1 16Z" fill="#1F1F1F"/>
<path d="M1 16C1 7.71573 7.71573 1 16 1C24.2843 1 31 7.71573 31 16C31 24.2843 24.2843 31 16 31C7.71573 31 1 24.2843 1 16Z" stroke="white" stroke-width="2"/>
<g id="photo_camera">
<mask id="mask0_1258_20912" style="mask-type:alpha" maskUnits="userSpaceOnUse" x="6" y="5" width="21" height="21">
<rect id="Bounding box" x="6.11426" y="5.98145" width="20" height="20" fill="#D9D9D9"/>
</mask>
<g mask="url(#mask0_1258_20912)">
<path id="photo_camera_2" d="M16.1142 20.1609C17.0288 20.1609 17.7874 19.8527 18.3899 19.2363C18.9924 18.6199 19.2936 17.8683 19.2936 16.9815C19.2936 16.1086 18.9924 15.3605 18.3899 14.7372C17.7874 14.1138 17.0288 13.8022 16.1142 13.8022C15.1997 13.8022 14.4411 14.1138 13.8386 14.7372C13.2361 15.3605 12.9349 16.1121 12.9349 16.9919C12.9349 17.8718 13.2361 18.6199 13.8386 19.2363C14.4411 19.8527 15.1997 20.1609 16.1142 20.1609ZM16.1142 19.0778C15.4988 19.0778 14.9956 18.8744 14.6047 18.4676C14.2136 18.0609 14.018 17.5586 14.018 16.9607C14.018 16.3744 14.2136 15.882 14.6047 15.4834C14.9956 15.0847 15.4988 14.8853 16.1142 14.8853C16.7297 14.8853 17.2329 15.0847 17.6238 15.4834C18.0149 15.882 18.2105 16.3744 18.2105 16.9607C18.2105 17.5586 18.0149 18.0609 17.6238 18.4676C17.2329 18.8744 16.7297 19.0778 16.1142 19.0778ZM9.87071 22.5649C9.50529 22.5649 9.19064 22.4329 8.92675 22.169C8.66286 21.9051 8.53091 21.5905 8.53091 21.2251V12.738C8.53091 12.3726 8.66286 12.0579 8.92675 11.794C9.19064 11.5301 9.50529 11.3982 9.87071 11.3982H12.2905L13.3803 9.94632C13.5171 9.76785 13.6802 9.63187 13.8695 9.5384C14.0589 9.44493 14.2586 9.39819 14.4684 9.39819H17.7638C17.9761 9.39819 18.1756 9.44493 18.3626 9.5384C18.5495 9.63187 18.7114 9.76785 18.8482 9.94632L19.938 11.3982H22.3578C22.7329 11.3982 23.05 11.5301 23.309 11.794C23.5681 12.0579 23.6976 12.3726 23.6976 12.738V21.2251C23.6976 21.5905 23.5681 21.9051 23.309 22.169C23.05 22.4329 22.7329 22.5649 22.3578 22.5649H9.87071ZM9.87071 21.4815H22.3578C22.4327 21.4815 22.4941 21.4575 22.5422 21.4094C22.5902 21.3614 22.6142 21.2999 22.6142 21.2251V12.738C22.6142 12.6631 22.5902 12.6017 22.5422 12.5536C22.4941 12.5056 22.4327 12.4815 22.3578 12.4815H19.3803L17.8703 10.4815H14.3563L12.8482 12.4815H9.87071C9.79584 12.4815 9.73439 12.5056 9.68633 12.5536C9.63828 12.6017 9.61425 12.6631 9.61425 12.738V21.2251C9.61425 21.2999 9.63828 21.3614 9.68633 21.4094C9.73439 21.4575 9.79584 21.4815 9.87071 21.4815Z" fill="white"/>
</g>
</g>
</g>
</svg>
