<svg width="33" height="32" viewBox="0 0 33 32" fill="none" xmlns="http://www.w3.org/2000/svg">
<g clip-path="url(#clip0_2196_4691)">
<rect x="0.5" width="32" height="32" rx="16" fill="#29CC5F"/>
<mask id="mask0_2196_4691" style="mask-type:alpha" maskUnits="userSpaceOnUse" x="1" y="0" width="32" height="32">
<rect x="1.25" y="0.5" width="31" height="31.5" fill="#D9D9D9"/>
</mask>
<g mask="url(#mask0_2196_4691)">
<path d="M14.0051 19.781L22.7413 10.9368C22.9118 10.7635 23.1023 10.6802 23.3126 10.6869C23.5229 10.6936 23.7175 10.7879 23.8963 10.9696C24.0751 11.1513 24.1646 11.3469 24.1646 11.5564C24.1646 11.7659 24.0751 11.9615 23.8963 12.1433L14.7577 21.4292C14.5458 21.6445 14.3003 21.7522 14.0213 21.7522C13.7422 21.7522 13.4968 21.6445 13.2848 21.4292L9.60354 17.6886C9.43298 17.5152 9.34355 17.3217 9.33526 17.108C9.327 16.8943 9.41228 16.6966 9.59111 16.5149C9.76996 16.3332 9.96247 16.2423 10.1686 16.2423C10.3748 16.2423 10.5673 16.3332 10.7461 16.5149L14.0051 19.781Z" fill="white"/>
</g>
</g>
<defs>
<clipPath id="clip0_2196_4691">
<rect x="0.5" width="32" height="32" rx="16" fill="white"/>
</clipPath>
</defs>
</svg>
