<svg width="65" height="64" viewBox="0 0 65 64" fill="none" xmlns="http://www.w3.org/2000/svg">
<rect x="0.5" width="64" height="64" rx="32" fill="#FF7733"/>
<mask id="mask0_1887_791" style="mask-type:alpha" maskUnits="userSpaceOnUse" x="4" y="4" width="58" height="57">
<rect x="4.5" y="4" width="56.8889" height="56.8889" fill="#D9D9D9"/>
</mask>
<g mask="url(#mask0_1887_791)">
<path d="M33.0357 48.3258C28.6258 48.3258 24.8764 46.7817 21.7875 43.6935C18.6987 40.6054 17.1542 36.8569 17.1542 32.448C17.1542 28.0392 18.6987 24.2895 21.7875 21.1989C24.8764 18.1083 28.6258 16.563 33.0357 16.563C35.6492 16.563 38.0446 17.1495 40.222 18.3226C42.3994 19.4956 44.2098 21.047 45.6533 22.9767V18.1037C45.6533 17.6672 45.7998 17.3013 46.0929 17.006C46.386 16.7106 46.7491 16.563 47.1823 16.563C47.6156 16.563 47.9826 16.7106 48.2834 17.006C48.5843 17.3013 48.7347 17.6672 48.7347 18.1037V26.7828C48.7347 27.3227 48.5521 27.7752 48.1869 28.1404C47.8217 28.5056 47.3692 28.6882 46.8293 28.6882H38.1502C37.7136 28.6882 37.3477 28.5417 37.0524 28.2486C36.7571 27.9556 36.6095 27.5924 36.6095 27.1592C36.6095 26.726 36.7571 26.3589 37.0524 26.0581C37.3477 25.7573 37.7136 25.6068 38.1502 25.6068H43.7798C42.6493 23.7926 41.1443 22.3453 39.2647 21.2649C37.3851 20.1846 35.3088 19.6444 33.0357 19.6444C29.4801 19.6444 26.4579 20.8889 23.969 23.3777C21.4801 25.8666 20.2357 28.8889 20.2357 32.4444C20.2357 36 21.4801 39.0222 23.969 41.5111C26.4579 44 29.4801 45.2444 33.0357 45.2444C36.0671 45.2444 38.7372 44.3038 41.046 42.4227C43.3548 40.5416 44.8419 38.1773 45.5074 35.3299C45.5743 34.8983 45.7863 34.5473 46.1433 34.2769C46.5004 34.0064 46.8862 33.8879 47.3009 33.9213C47.7432 33.9548 48.1004 34.1226 48.3723 34.425C48.6443 34.7274 48.7666 35.0943 48.7392 35.5258C47.9826 39.2272 46.1516 42.2859 43.2463 44.7019C40.341 47.1179 36.9375 48.3258 33.0357 48.3258Z" fill="white"/>
</g>
</svg>
