<svg width="28" height="27" viewBox="0 0 28 27" fill="none" xmlns="http://www.w3.org/2000/svg">
<g filter="url(#filter0_d_1631_6101)">
<rect x="4" y="2" width="20" height="20" rx="6" fill="#FEF153"/>
<g clip-path="url(#clip0_1631_6101)">
<path d="M13.123 7.9502C10.8093 7.9502 8.93335 9.83597 8.93335 12.1624C8.93335 13.9669 10.0622 15.5062 11.6485 16.1058C12.5751 15.5971 13.5492 14.9693 14.5162 14.2546C13.963 14.898 13.1145 15.6035 12.0825 16.2434C12.4151 16.3289 12.7637 16.3745 13.123 16.3745C15.4367 16.3745 17.3127 14.4887 17.3127 12.1624C17.3127 9.83597 15.4367 7.9502 13.123 7.9502Z" fill="#1F1814"/>
<path d="M19.9005 7.22033C19.3411 6.47803 17.3438 6.99051 14.9269 8.35979C15.0448 8.41637 15.1597 8.47859 15.2712 8.5459C16.8767 7.74755 18.1443 7.50271 18.5353 8.02189C19.1603 8.85135 17.3123 11.3172 14.4078 13.5296C11.503 15.742 8.64174 16.863 8.01677 16.0332C7.65935 15.5591 8.11067 14.55 9.10506 13.3593C9.06612 13.2274 9.03358 13.0925 9.0077 12.9554C7.25977 14.7881 6.3742 16.4215 6.90128 17.1209C7.67668 18.1502 11.2155 16.768 14.805 14.034C18.3947 11.3 20.6759 8.2493 19.9005 7.22033Z" fill="#1F1814"/>
<path d="M18.1984 14.2603C18.199 14.9814 18.7802 15.5657 19.4974 15.5662C18.7802 15.5668 18.199 16.1511 18.1984 16.8722C18.1979 16.1511 17.6167 15.5668 16.8994 15.5662C17.6167 15.5657 18.1979 14.9814 18.1984 14.2603Z" fill="#1F1814"/>
<path d="M9.63565 6.29346C9.63591 6.80084 10.0448 7.21194 10.5495 7.21221C10.0448 7.21248 9.63591 7.62359 9.63565 8.13097C9.63538 7.62359 9.22647 7.21248 8.7218 7.21221C9.22647 7.21194 9.63538 6.80084 9.63565 6.29346Z" fill="#1F1814"/>
<path d="M17.5679 16.1248C16.5058 17.2119 15.0273 17.8864 13.3916 17.8864C12.2857 17.8864 11.2516 17.578 10.3692 17.0422C10.2084 17.1125 10.0499 17.1784 9.89469 17.239C9.87362 17.2473 9.85308 17.2549 9.83228 17.2629C10.983 18.1932 12.4447 18.7502 14.0363 18.7502C15.628 18.7502 17.0374 18.2133 18.1782 17.3128C18.1132 16.8475 17.8912 16.4329 17.5679 16.1245V16.1248Z" fill="#1F1814"/>
<path d="M18.582 14.7244C18.8648 15.1168 19.2836 15.4034 19.769 15.5147C20.3913 14.4909 20.7501 13.2876 20.7501 12.0001C20.7501 10.8775 20.4772 9.81905 19.9949 8.8877C19.8096 9.26957 19.5455 9.69114 19.203 10.1492C19.1448 10.2269 19.0846 10.3055 19.0227 10.3844C19.1681 10.8979 19.2462 11.4399 19.2462 12.0001C19.2462 12.9832 19.0061 13.91 18.5823 14.7244H18.582Z" fill="#1F1814"/>
<path d="M18.2241 17.2756C18.7984 16.8143 19.2959 16.2605 19.6936 15.6362C18.9331 15.8419 18.3503 16.482 18.2241 17.2756Z" fill="#1F1814"/>
<path d="M9.31189 7.77878C9.23 7.67527 9.13477 7.58275 9.02861 7.50391C7.96753 8.6978 7.32202 10.273 7.32202 12.0001C7.32202 12.7386 7.44045 13.449 7.65838 14.1141C7.71759 14.036 7.77868 13.9577 7.84163 13.8789C7.64397 13.2889 7.53701 12.6571 7.53701 12.0001C7.53701 10.3441 8.21746 8.84825 9.31215 7.77878H9.31189Z" fill="#1F1814"/>
<path d="M14.036 5.25C12.5007 5.25 11.0862 5.76837 9.95496 6.6402C10.0601 6.77428 10.1873 6.88987 10.3313 6.98131C11.2217 6.43129 12.2697 6.11405 13.3913 6.11405C14.6359 6.11405 15.7896 6.50477 16.7381 7.17037C16.7949 7.14731 16.8512 7.12452 16.9072 7.10279C17.3833 6.91695 17.8144 6.78394 18.1982 6.70376C17.0542 5.79358 15.6085 5.25 14.036 5.25Z" fill="#1F1814"/>
</g>
</g>
<defs>
<filter id="filter0_d_1631_6101" x="0.666667" y="0.333333" width="26.6667" height="26.6667" filterUnits="userSpaceOnUse" color-interpolation-filters="sRGB">
<feFlood flood-opacity="0" result="BackgroundImageFix"/>
<feColorMatrix in="SourceAlpha" type="matrix" values="0 0 0 0 0 0 0 0 0 0 0 0 0 0 0 0 0 0 127 0" result="hardAlpha"/>
<feOffset dy="1.66667"/>
<feGaussianBlur stdDeviation="1.66667"/>
<feColorMatrix type="matrix" values="0 0 0 0 0 0 0 0 0 0 0 0 0 0 0 0 0 0 0.1 0"/>
<feBlend mode="normal" in2="BackgroundImageFix" result="effect1_dropShadow_1631_6101"/>
<feBlend mode="normal" in="SourceGraphic" in2="effect1_dropShadow_1631_6101" result="shape"/>
</filter>
<clipPath id="clip0_1631_6101">
<rect width="14" height="13.5" fill="white" transform="translate(6.75 5.25)"/>
</clipPath>
</defs>
</svg>
