<svg width="20" height="20" viewBox="0 0 20 20" fill="none" xmlns="http://www.w3.org/2000/svg">
<g clip-path="url(#clip0_3_1507)">
<path d="M14.6667 0H5.33333C2.38781 0 0 2.38781 0 5.33333V14.6667C0 17.6122 2.38781 20 5.33333 20H14.6667C17.6122 20 20 17.6122 20 14.6667V5.33333C20 2.38781 17.6122 0 14.6667 0Z" fill="url(#paint0_linear_3_1507)"/>
<path d="M16.6667 9.58353C16.6668 9.98212 16.5525 10.3724 16.3374 10.708C16.1224 11.0436 15.8155 11.3104 15.4534 11.4769C15.3082 11.2221 15.1256 10.9907 14.9117 10.7902C15.2317 10.703 15.504 10.4923 15.6686 10.2043C15.8333 9.91637 15.8768 9.57481 15.7896 9.25478C15.7024 8.93475 15.4917 8.66247 15.2037 8.49783C14.9158 8.33319 14.5742 8.28968 14.2542 8.37687C14.1966 8.39248 14.1363 8.39554 14.0774 8.38583C14.0186 8.37613 13.9625 8.3539 13.9129 8.32063C13.8634 8.28737 13.8216 8.24385 13.7903 8.19303C13.759 8.1422 13.739 8.08525 13.7317 8.02603C13.6728 7.5488 13.4775 7.0987 13.1692 6.72966C12.8609 6.36063 12.4527 6.08833 11.9936 5.9454C11.5345 5.80248 11.0439 5.79499 10.5806 5.92384C10.1174 6.05269 9.70108 6.31241 9.38169 6.67187C9.02561 6.65552 8.66883 6.68013 8.31836 6.7452C8.63793 6.15671 9.12727 5.67806 9.72267 5.37155C10.3181 5.06504 10.992 4.94488 11.6566 5.0267C12.3212 5.10852 12.9459 5.38854 13.4491 5.8303C13.9524 6.27206 14.3111 6.85511 14.4784 7.50353C14.7604 7.4893 15.0423 7.53255 15.3071 7.63064C15.5719 7.72874 15.814 7.87964 16.0186 8.07418C16.2233 8.26871 16.3863 8.50282 16.4977 8.76229C16.6091 9.02176 16.6666 9.30116 16.6667 9.58353Z" fill="white"/>
<path d="M9.16652 7.5C10.0891 7.49982 10.9793 7.83971 11.667 8.45468C12.3547 9.06964 12.7915 9.91651 12.894 10.8333H12.9165C13.4691 10.8333 13.999 11.0528 14.3897 11.4435C14.7804 11.8342 14.9999 12.3641 14.9999 12.9167C14.9999 13.4692 14.7804 13.9991 14.3897 14.3898C13.999 14.7805 13.4691 15 12.9165 15H5.83319C5.18765 15.0005 4.56695 14.7513 4.10101 14.3045C3.63508 13.8577 3.36002 13.248 3.33342 12.603C3.30683 11.958 3.53075 11.3277 3.95833 10.8441C4.3859 10.3605 4.98397 10.061 5.62736 10.0083C5.88488 9.2752 6.36369 8.64011 6.99766 8.1908C7.63163 7.74148 8.38947 7.5001 9.16652 7.5Z" fill="white"/>
</g>
<defs>
<linearGradient id="paint0_linear_3_1507" x1="10" y1="0" x2="10" y2="20" gradientUnits="userSpaceOnUse">
<stop stop-color="#B3B3B8"/>
<stop offset="1" stop-color="#8E8E93"/>
</linearGradient>
<clipPath id="clip0_3_1507">
<rect width="20" height="20" fill="white"/>
</clipPath>
</defs>
</svg>
