<svg width="20" height="20" viewBox="0 0 20 20" fill="none" xmlns="http://www.w3.org/2000/svg">
<g clip-path="url(#clip0_3_1493)">
<path d="M14.6667 0H5.33333C2.38781 0 0 2.38781 0 5.33333V14.6667C0 17.6122 2.38781 20 5.33333 20H14.6667C17.6122 20 20 17.6122 20 14.6667V5.33333C20 2.38781 17.6122 0 14.6667 0Z" fill="url(#paint0_linear_3_1493)"/>
<path d="M15 9.16675L16 9.33333L15 10.0001V9.16675Z" fill="#FFFFFD"/>
<path d="M5.49992 9.16675L4.33325 9.33341L5.49992 10.0001V9.16675Z" fill="#FFFFFD"/>
<path fill-rule="evenodd" clip-rule="evenodd" d="M6.15015 4.66655H14.2C14.6418 4.66655 15 5.02472 15 5.46655V11.5165C15.2019 11.3712 15.3333 11.1343 15.3333 10.8666V5.13325C15.3333 4.69143 14.9752 4.33325 14.5333 4.33325H6.79998C6.53233 4.33325 6.29538 4.46469 6.15015 4.66655Z" fill="#FFFFFD"/>
<path d="M13.8666 5H6.13325C5.69142 5 5.33325 5.35817 5.33325 5.8V11.5333C5.33325 11.9752 5.69142 12.3333 6.13325 12.3333H13.8666C14.3084 12.3333 14.6666 11.9752 14.6666 11.5333V5.8C14.6666 5.35817 14.3084 5 13.8666 5Z" fill="#FFFFFD"/>
<path d="M10 8.66675C10.5523 8.66675 11 8.21903 11 7.66675C11 7.11446 10.5523 6.66675 10 6.66675C9.44772 6.66675 9 7.11446 9 7.66675C9 8.21903 9.44772 8.66675 10 8.66675Z" fill="#85CDF2"/>
<path d="M9.99983 12.6666C11.2885 12.6666 12.3332 11.9204 12.3332 10.9999C12.3332 10.0794 11.2885 9.33325 9.99983 9.33325C8.71117 9.33325 7.6665 10.0794 7.6665 10.9999C7.6665 11.9204 8.71117 12.6666 9.99983 12.6666Z" fill="#85CDF2"/>
<path d="M4.33325 9.33325L9.82064 11.2147C10.0449 11.2915 10.2883 11.2915 10.5125 11.2147L15.9999 9.33325V14.2666C15.9999 14.8557 15.5224 15.3333 14.9333 15.3333H5.39992C4.81082 15.3333 4.33325 14.8557 4.33325 14.2666V9.33325Z" fill="#FFFFFD"/>
</g>
<defs>
<linearGradient id="paint0_linear_3_1493" x1="10" y1="0" x2="10" y2="20" gradientUnits="userSpaceOnUse">
<stop stop-color="#A1E2FA"/>
<stop offset="1" stop-color="#70BDEB"/>
</linearGradient>
<clipPath id="clip0_3_1493">
<rect width="20" height="20" fill="white"/>
</clipPath>
</defs>
</svg>
