<svg width="20" height="20" viewBox="0 0 20 20" fill="none" xmlns="http://www.w3.org/2000/svg">
<g clip-path="url(#clip0_2143_7197)">
<path d="M14.6667 0H5.33333C2.38781 0 0 2.38781 0 5.33333V14.6667C0 17.6122 2.38781 20 5.33333 20H14.6667C17.6122 20 20 17.6122 20 14.6667V5.33333C20 2.38781 17.6122 0 14.6667 0Z" fill="url(#paint0_linear_2143_7197)"/>
<path d="M7.07031 5.3125H12.9297C13.9005 5.3125 14.6875 6.09951 14.6875 7.07031V12.9297C14.6875 13.9005 13.9005 14.6875 12.9297 14.6875H7.07031C6.09951 14.6875 5.3125 13.9005 5.3125 12.9297V7.07031C5.3125 6.09951 6.09951 5.3125 7.07031 5.3125ZM8.9605 8.19266C8.87794 8.14825 8.78566 8.125 8.69191 8.125C8.37883 8.125 8.125 8.37883 8.125 8.69191V11.308C8.125 11.3901 8.14281 11.4712 8.17727 11.5457C8.30859 11.83 8.64545 11.9539 8.92968 11.8226L11.5457 10.614C11.6572 10.5625 11.749 10.4762 11.8072 10.368C11.9556 10.0923 11.8523 9.74847 11.5766 9.60013L8.9605 8.19266Z" fill="white"/>
</g>
<defs>
<linearGradient id="paint0_linear_2143_7197" x1="10" y1="0" x2="10" y2="20" gradientUnits="userSpaceOnUse">
<stop stop-color="#FF9549"/>
<stop offset="1" stop-color="#FF660F"/>
</linearGradient>
<clipPath id="clip0_2143_7197">
<rect width="20" height="20" fill="white"/>
</clipPath>
</defs>
</svg>
