<svg width="20" height="20" viewBox="0 0 20 20" fill="none" xmlns="http://www.w3.org/2000/svg">
<g clip-path="url(#clip0_427_68798)">
<path d="M14.6667 0H5.33333C2.38781 0 0 2.38781 0 5.33333V14.6667C0 17.6122 2.38781 20 5.33333 20H14.6667C17.6122 20 20 17.6122 20 14.6667V5.33333C20 2.38781 17.6122 0 14.6667 0Z" fill="url(#paint0_linear_427_68798)"/>
<path d="M15 9.1665L16 9.33308L15 9.99983V9.1665Z" fill="#FFFFFD"/>
<path d="M5.49968 9.1665L4.33301 9.33316L5.49968 9.99983V9.1665Z" fill="#FFFFFD"/>
<path fill-rule="evenodd" clip-rule="evenodd" d="M6.15039 4.6668H14.2002C14.642 4.6668 15.0002 5.02497 15.0002 5.4668V11.5167C15.2021 11.3714 15.3335 11.1345 15.3335 10.8668V5.1335C15.3335 4.69168 14.9754 4.3335 14.5335 4.3335H6.80022C6.53257 4.3335 6.29562 4.46494 6.15039 4.6668Z" fill="#FFFFFD"/>
<path d="M13.8663 5H6.13301C5.69118 5 5.33301 5.35817 5.33301 5.8V11.5333C5.33301 11.9752 5.69118 12.3333 6.13301 12.3333H13.8663C14.3082 12.3333 14.6663 11.9752 14.6663 11.5333V5.8C14.6663 5.35817 14.3082 5 13.8663 5Z" fill="#FFFFFD"/>
<path d="M10 8.6665C10.5523 8.6665 11 8.21879 11 7.6665C11 7.11422 10.5523 6.6665 10 6.6665C9.44772 6.6665 9 7.11422 9 7.6665C9 8.21879 9.44772 8.6665 10 8.6665Z" fill="#FD9F3B"/>
<path d="M10.0003 12.6668C11.289 12.6668 12.3337 11.9206 12.3337 11.0002C12.3337 10.0797 11.289 9.3335 10.0003 9.3335C8.71166 9.3335 7.66699 10.0797 7.66699 11.0002C7.66699 11.9206 8.71166 12.6668 10.0003 12.6668Z" fill="#FD9F3B"/>
<path d="M4.33301 9.3335L9.8204 11.2149C10.0447 11.2917 10.2881 11.2917 10.5123 11.2149L15.9997 9.3335V14.2668C15.9997 14.8559 15.5222 15.3335 14.9331 15.3335H5.39968C4.81058 15.3335 4.33301 14.8559 4.33301 14.2668V9.3335Z" fill="#FFFFFD"/>
</g>
<defs>
<linearGradient id="paint0_linear_427_68798" x1="10" y1="0" x2="10" y2="20" gradientUnits="userSpaceOnUse">
<stop stop-color="#FFBE64"/>
<stop offset="1" stop-color="#FC9B36"/>
</linearGradient>
<clipPath id="clip0_427_68798">
<rect width="20" height="20" fill="white"/>
</clipPath>
</defs>
</svg>
