<svg width="212" height="141" viewBox="0 0 212 141" fill="none" xmlns="http://www.w3.org/2000/svg">
<rect width="212" height="141" rx="8" fill="#F6F6F6"/>
<mask id="mask0_635_3337" style="mask-type:alpha" maskUnits="userSpaceOnUse" x="0" y="0" width="212" height="141">
<rect width="212" height="141" rx="8" fill="#F6F6F6"/>
</mask>
<g mask="url(#mask0_635_3337)">
<mask id="mask1_635_3337" style="mask-type:alpha" maskUnits="userSpaceOnUse" x="90" y="39" width="32" height="32">
<rect x="90" y="39" width="32" height="32" fill="#D9D9D9"/>
</mask>
<g mask="url(#mask1_635_3337)">
<path d="M97.6104 65.5333C97.0102 65.5333 96.5029 65.3222 96.0885 64.8999C95.674 64.4777 95.4668 63.9743 95.4668 63.3897V46.6103C95.4668 46.0257 95.674 45.5222 96.0885 45.1C96.5029 44.6778 97.0102 44.4667 97.6104 44.4667H114.39C114.99 44.4667 115.497 44.6778 115.912 45.1C116.326 45.5222 116.533 46.0257 116.533 46.6103V63.3897C116.533 63.9743 116.326 64.4777 115.912 64.8999C115.497 65.3222 114.99 65.5333 114.39 65.5333H97.6104ZM97.6104 63.8H114.39C114.492 63.8 114.586 63.7572 114.672 63.6718C114.757 63.5863 114.8 63.4923 114.8 63.3897V46.6103C114.8 46.5077 114.757 46.4137 114.672 46.3282C114.586 46.2427 114.492 46.2 114.39 46.2H97.6104C97.5078 46.2 97.4138 46.2427 97.3283 46.3282C97.2428 46.4137 97.2001 46.5077 97.2001 46.6103V63.3897C97.2001 63.4923 97.2428 63.5863 97.3283 63.6718C97.4138 63.7572 97.5078 63.8 97.6104 63.8ZM100.872 61.0666H111.237C111.452 61.0666 111.606 60.9683 111.7 60.7717C111.794 60.5752 111.776 60.3854 111.646 60.2025L108.533 56.0436C108.425 55.8829 108.287 55.8026 108.118 55.8026C107.949 55.8026 107.811 55.8829 107.703 56.0436L104.774 59.8256L103.123 57.759C103.015 57.6068 102.879 57.5308 102.714 57.5308C102.55 57.5308 102.413 57.6111 102.305 57.7718L100.475 60.2034C100.333 60.3857 100.311 60.5752 100.411 60.7717C100.511 60.9683 100.664 61.0666 100.872 61.0666ZM101.2 51.4666C101.551 51.4666 101.849 51.3431 102.096 51.0961C102.343 50.8491 102.467 50.5504 102.467 50.2C102.467 49.8496 102.343 49.5508 102.096 49.3038C101.849 49.0568 101.551 48.9333 101.2 48.9333C100.85 48.9333 100.551 49.0568 100.304 49.3038C100.057 49.5508 99.9335 49.8496 99.9335 50.2C99.9335 50.5504 100.057 50.8491 100.304 51.0961C100.551 51.3431 100.85 51.4666 101.2 51.4666Z" fill="#ADADAD"/>
</g>
</g>
</svg>
