<svg width="8" height="8" viewBox="0 0 8 8" fill="none" xmlns="http://www.w3.org/2000/svg">
<g clip-path="url(#clip0_59_211)">
<path d="M6.66671 4.16673C6.66671 4.10042 6.69305 4.03683 6.73993 3.98995C6.78681 3.94307 6.8504 3.91673 6.91671 3.91673C6.98301 3.91673 7.0466 3.94307 7.09348 3.98995C7.14037 4.03683 7.16671 4.10042 7.16671 4.16673V6.25006C7.16671 6.75631 6.75629 7.16673 6.25004 7.16673H1.75004C1.24379 7.16673 0.833374 6.75631 0.833374 6.25006V2.00006C0.833374 1.49381 1.24379 1.08339 1.75004 1.08339H3.91671C3.98301 1.08339 4.0466 1.10973 4.09348 1.15662C4.14037 1.2035 4.16671 1.26709 4.16671 1.33339C4.16671 1.3997 4.14037 1.46329 4.09348 1.51017C4.0466 1.55705 3.98301 1.58339 3.91671 1.58339H1.75004C1.63953 1.58339 1.53355 1.62729 1.45541 1.70543C1.37727 1.78357 1.33337 1.88955 1.33337 2.00006V6.25006C1.33337 6.36057 1.37727 6.46655 1.45541 6.54469C1.53355 6.62283 1.63953 6.66673 1.75004 6.66673H6.25004C6.36055 6.66673 6.46653 6.62283 6.54467 6.54469C6.62281 6.46655 6.66671 6.36057 6.66671 6.25006V4.16673ZM6.33812 2.00006L5.63662 1.25473C5.59118 1.20643 5.56679 1.14207 5.5688 1.07579C5.57082 1.00951 5.59908 0.94675 5.64737 0.90131C5.69567 0.855869 5.76003 0.831474 5.82631 0.83349C5.89259 0.835506 5.95535 0.863768 6.00079 0.91206L7.09879 2.07873C7.24896 2.23823 7.13579 2.50006 6.91671 2.50006H5.66179C5.02371 2.50006 4.50004 3.05639 4.50004 3.75006V5.25006C4.50004 5.31636 4.4737 5.37995 4.42682 5.42684C4.37993 5.47372 4.31634 5.50006 4.25004 5.50006C4.18374 5.50006 4.12015 5.47372 4.07326 5.42684C4.02638 5.37995 4.00004 5.31636 4.00004 5.25006V3.75006C4.00004 2.78681 4.74054 2.00006 5.66179 2.00006H6.33812Z" fill="#4D4D4D"/>
</g>
<defs>
<clipPath id="clip0_59_211">
<rect width="8" height="8" fill="white"/>
</clipPath>
</defs>
</svg>
