<svg width="24" height="24" viewBox="0 0 24 24" fill="none" xmlns="http://www.w3.org/2000/svg">
<circle opacity="0.1" cx="11.9996" cy="12.0001" r="6.4" stroke="#2CD07E" stroke-width="3.2"/>
<path d="M20.0004 12.0001C20.0004 12.8838 19.284 13.6001 18.4004 13.6001C17.5167 13.6001 16.8004 12.8838 16.8004 12.0001H20.0004ZM4.00039 12.0001C4.00039 9.87837 4.84325 7.84353 6.34354 6.34324L8.60628 8.60599C7.7061 9.50616 7.20039 10.7271 7.20039 12.0001H4.00039ZM6.34354 6.34324C7.84383 4.84295 9.87866 4.0001 12.0004 4.0001V7.2001C10.7274 7.2001 9.50645 7.70581 8.60628 8.60599L6.34354 6.34324ZM12.0004 4.0001C14.1221 4.0001 16.157 4.84295 17.6572 6.34324L15.3945 8.60598C14.4943 7.70581 13.2734 7.2001 12.0004 7.2001V4.0001ZM17.6572 6.34324C19.1575 7.84353 20.0004 9.87836 20.0004 12.0001H16.8004C16.8004 10.7271 16.2947 9.50616 15.3945 8.60598L17.6572 6.34324Z" fill="url(#paint0_linear_1200_31522)"/>
<defs>
<linearGradient id="paint0_linear_1200_31522" x1="18.4004" y1="12.0001" x2="6.88039" y2="12.0001" gradientUnits="userSpaceOnUse">
<stop stop-color="#2EE58A"/>
<stop offset="1" stop-color="#2EE58A" stop-opacity="0"/>
</linearGradient>
</defs>
</svg>
