<svg width="24" height="24" viewBox="0 0 24 24" fill="none" xmlns="http://www.w3.org/2000/svg">
<path fill-rule="evenodd" clip-rule="evenodd" d="M12.0002 22C17.523 22 22.0002 17.5228 22.0002 12C22.0002 6.47715 17.523 2 12.0002 2C6.47734 2 2.00018 6.47715 2.00018 12C2.00018 17.5228 6.47734 22 12.0002 22ZM14.5713 8.31982H9.43873C9.21289 8.31982 9.01786 8.13504 9.01786 7.89893C9.01786 6.85184 9.86987 5.9998 10.9169 5.9998H13.0931C14.1402 5.9998 14.9922 6.85184 14.9922 7.89893C14.9922 8.13504 14.8074 8.31982 14.5713 8.31982ZM16.4396 11.3175H7.57046C7.34462 11.3175 7.15985 11.1327 7.15985 10.9069V10.2807C7.15985 9.57233 7.7347 8.99746 8.443 8.99746H15.5568C16.2651 8.99746 16.8399 9.57233 16.8399 10.2807V10.9069C16.8502 11.1327 16.6654 11.3175 16.4396 11.3175ZM16.8503 11.9951H7.15995C6.52351 11.9951 5.99998 12.5187 5.99998 13.1551C5.99998 13.7916 6.52351 14.3151 7.15995 14.3151H10.5988C10.722 13.6581 11.2968 13.1551 11.9949 13.1551C12.6929 13.1551 13.278 13.6581 13.4012 14.3151H16.84C17.4765 14.3151 18 13.7916 18 13.1551C18 12.5187 17.4867 11.9951 16.8503 11.9951ZM16.4298 14.9916H13.4221V17.3116H15.6804C16.3168 17.3116 16.8404 16.7881 16.8404 16.1516V15.4125C16.8506 15.1866 16.6659 14.9916 16.4298 14.9916ZM7.57076 14.9916C7.34493 14.9916 7.14989 15.1764 7.14989 15.4125V16.1516C7.14989 16.7881 7.67341 17.3116 8.30985 17.3116H10.5682V14.9916H7.57076Z" fill="#ADADAD"/>
</svg>
