<svg width="24" height="24" viewBox="0 0 24 24" fill="none" xmlns="http://www.w3.org/2000/svg">
<path fill-rule="evenodd" clip-rule="evenodd" d="M19.1246 2.34473C18.0309 2.00098 17.0309 2.00098 15.0309 2.00098H8.96835C6.96835 2.00098 5.96835 2.00098 4.8746 2.34473C4.29396 2.55713 3.76666 2.89366 3.32947 3.33085C2.89229 3.76803 2.55576 4.29534 2.34335 4.87598C1.9996 5.95723 1.9996 6.96348 1.9996 8.96973V15.0291C1.9996 17.0322 1.9996 18.0322 2.34335 19.126C2.55576 19.7066 2.89229 20.2339 3.32947 20.6711C3.76666 21.1083 4.29396 21.4448 4.8746 21.6572C5.95585 22.001 6.9621 22.001 8.96835 22.001H15.0309C17.0309 22.001 18.0309 22.001 19.1246 21.651C19.7052 21.4386 20.2325 21.102 20.6697 20.6649C21.1069 20.2277 21.4434 19.7004 21.6559 19.1197C21.9996 18.0385 21.9996 17.0322 21.9996 15.026V8.97285C21.9996 6.96973 21.9996 5.96973 21.6559 4.87598C21.4434 4.29534 21.1069 3.76803 20.6697 3.33085C20.2325 2.89366 19.7052 2.55713 19.1246 2.34473ZM15.8337 9.43926C15.6869 9.59551 15.4275 9.59551 15.2712 9.43926L15.2775 9.44551C14.6181 8.85176 13.6087 8.41738 12.5587 8.41738C11.7337 8.41738 10.9119 8.71738 10.9119 9.47363C10.9119 10.1932 11.6656 10.4692 12.5847 10.8057C12.6594 10.8331 12.7353 10.8608 12.8119 10.8893C14.5931 11.5049 16.0619 12.2611 16.0619 14.0549C16.0619 16.0018 14.5869 17.3361 12.1656 17.4986L11.9469 18.558C11.928 18.6517 11.8772 18.736 11.8031 18.7965C11.729 18.8569 11.6362 18.8897 11.5406 18.8893L10.025 18.8768C9.76561 18.8736 9.57499 18.633 9.62811 18.3736L9.85936 17.258C8.91186 16.9986 8.08061 16.5299 7.42436 15.883C7.34497 15.8033 7.3004 15.6955 7.3004 15.583C7.3004 15.4705 7.34497 15.3627 7.42436 15.283L8.26811 14.4393C8.30584 14.4015 8.35066 14.3715 8.39999 14.351C8.44932 14.3306 8.5022 14.32 8.55561 14.32C8.60902 14.32 8.6619 14.3306 8.71123 14.351C8.76056 14.3715 8.80538 14.4015 8.84311 14.4393C9.65561 15.2549 10.7056 15.5893 11.7056 15.5893C12.8056 15.5893 13.5494 15.133 13.5494 14.3549C13.5494 13.6712 12.939 13.4422 11.7807 13.0074C11.6576 12.9612 11.5284 12.9127 11.3931 12.8611C9.90248 12.3268 8.49311 11.5486 8.49311 9.73613C8.49311 7.64238 10.1994 6.62051 12.2119 6.51738L12.4306 5.46113C12.4492 5.36844 12.4991 5.28496 12.5719 5.22466C12.6448 5.16435 12.7361 5.1309 12.8306 5.12988H14.3431C14.6025 5.12988 14.7962 5.37363 14.7431 5.63301L14.4962 6.82051C15.2686 7.07794 15.9823 7.48579 16.5962 8.02051C16.7712 8.18926 16.7806 8.47051 16.615 8.62676L15.8337 9.43926Z" fill="#ADADAD"/>
</svg>
