<svg width="26" height="24" viewBox="0 0 26 24" fill="none" xmlns="http://www.w3.org/2000/svg">
<g clip-path="url(#clip0_1308_87440)">
<path fill-rule="evenodd" clip-rule="evenodd" d="M6.92857 10.6051C7.24998 11.6536 7.63456 12.6817 8.08054 13.6835C8.81951 15.4379 9.31813 16.3667 10.0073 17.5184L10.0835 17.6428C10.9058 18.9871 11.8252 20.49 13.3091 21.4736C14.4278 22.2126 15.7875 22.5908 17.0938 22.5908C18.9346 22.5908 20.5161 21.7838 21.5319 20.8364C22.5288 19.9083 23.8197 18.1187 23.8197 14.6277C23.8197 13.4927 24.2937 12.5091 24.6794 11.7088L24.7478 11.5666C24.7478 11.5494 24.765 11.515 24.7994 11.4463L24.7994 11.4462C24.9541 11.1023 25.1432 10.6553 25.1432 10.2086C25.145 9.8416 25.0373 9.48229 24.8338 9.17702C24.4899 8.59279 23.8713 8.38646 23.3025 8.38646C21.9789 8.38646 21.0663 9.31457 20.6006 10.2616L20.4459 10.5711C20.2568 10.296 20.0676 10.0037 19.9129 9.74581C19.4318 8.90367 19.1567 8.33629 18.916 7.61275C18.7307 7.03764 18.5813 6.45201 18.469 5.8583C18.177 4.17228 17.697 3.62208 16.9033 3.41576C16.3187 3.26102 15.6313 3.38067 15.1313 3.70805C14.7888 2.9361 14.2046 2.59082 13.4295 2.59082C12.3295 2.59082 11.3308 3.3126 11.3308 4.53475C11.3308 4.66905 11.3438 4.80336 11.3589 4.96014L11.3589 4.96017L11.3659 5.03336C11.2196 4.99827 11.0694 4.98108 10.9189 4.98178C9.73288 4.98178 8.8546 5.80672 8.8546 6.92571C8.85811 7.22712 8.89881 7.52678 8.97566 7.81837C8.8732 7.80399 8.76969 7.79837 8.66617 7.80118C8.08194 7.83627 7.54894 8.05908 7.16928 8.52331C6.79242 8.97034 6.63768 9.65809 6.92857 10.6051ZM6.17369 16.0496C5.80946 16.2748 3.87957 17.2857 3.44377 17.4468C3.13253 17.5622 2.79497 17.5342 2.59672 16.9468C2.3511 16.2201 2.69497 16.0482 3.1827 15.859C3.61395 15.692 5.40313 15.045 5.81894 14.9323C6.11123 14.8541 6.31439 14.9527 6.45475 15.3043C6.60949 15.6902 6.50317 15.845 6.17404 16.0496H6.17369ZM1.41691 11.8262C1.9092 11.8746 4.06437 11.9669 4.58298 11.9529L4.58404 11.9532C4.82685 11.9452 5.01738 11.8648 5.07528 11.4438C5.12055 11.1188 5.06897 10.9501 4.69702 10.8343C4.33771 10.722 2.07974 10.3546 1.592 10.3079C1.17163 10.2683 0.912328 10.3079 0.86215 10.9746C0.815482 11.595 0.988822 11.7841 1.41691 11.8262ZM4.85085 7.58954C4.2936 7.41344 2.70818 6.46329 2.13446 6.11946L2.03461 6.05966C1.61916 5.80948 1.56582 5.58456 1.85495 5.03612C2.11145 4.55154 2.39567 4.46697 2.81779 4.68523C3.30693 4.93997 5.03366 6.28388 5.36315 6.5495C5.68211 6.80565 5.63824 6.93864 5.47122 7.26848C5.3042 7.59831 5.1477 7.68253 4.85085 7.58884V7.58954ZM12.3325 4.53437C12.3325 3.88102 12.934 3.62206 13.4326 3.62206C13.9656 3.62206 14.1544 3.87961 14.2919 4.42911C14.4123 4.87614 14.4638 5.28844 14.5154 5.76986C14.5856 6.25128 14.8249 7.35307 14.8937 7.62782C15.1516 8.57346 15.6656 9.6921 16.286 11.0332C15.8849 11.1707 15.4944 11.3374 15.1172 11.5315C14.7045 11.755 14.6186 11.755 14.4466 11.4283C14.0856 10.7581 13.828 10.2595 13.6045 9.67385C13.388 9.13103 13.2094 8.57417 13.0694 8.00678C12.9985 7.70915 12.9445 7.46995 12.8992 7.26918L12.8992 7.26908L12.8992 7.26907C12.7796 6.73922 12.7204 6.47693 12.5708 6.11408C12.4515 5.60003 12.3325 4.96421 12.3325 4.53437ZM7.91123 10.2951C7.75649 9.79653 7.77368 9.41792 7.96281 9.17792C8.15159 8.9544 8.40949 8.85124 8.71898 8.83404C9.25198 8.81685 9.4583 9.19511 9.76744 10.1748C9.95657 10.7938 10.3348 11.6892 10.5583 12.1875C10.8506 12.7893 11.2629 13.597 11.4521 13.8739C11.6068 14.1142 11.7443 14.183 11.8991 14.183C12.1742 14.183 12.3805 14.0283 12.3805 13.7535C12.3805 13.6142 12.2552 13.3914 12.1674 13.2354L12.1398 13.1861C12.1087 13.1275 12.0707 13.057 12.028 12.9778L12.0278 12.9774C11.8578 12.6621 11.6134 12.2088 11.4349 11.811C11.1942 11.2608 10.9194 10.5734 10.6959 9.95303C10.5598 9.59581 10.4069 9.08679 10.2538 8.57716L10.2489 8.5607C10.0081 7.7698 9.88779 7.28838 9.88779 6.92591C9.88779 6.37606 10.3004 6.01359 10.9194 6.01359C11.3661 6.01359 11.6584 6.23711 11.8475 7.04486C12.0023 7.78418 12.2773 8.98879 12.6725 9.93443C12.9304 10.5531 13.3086 11.3797 13.5321 11.7924C13.5771 11.871 13.6238 11.946 13.6664 12.0143L13.6664 12.0143C13.7543 12.1551 13.8244 12.2675 13.8244 12.3254C13.8244 12.4018 13.7342 12.5059 13.62 12.6378L13.62 12.6378L13.6199 12.6378C13.5543 12.7135 13.4808 12.7984 13.4118 12.8924C13.2914 13.0472 13.2398 13.1503 13.2398 13.2707C13.2398 13.3739 13.31 13.477 13.4118 13.6146C13.5135 13.7521 13.6181 13.8897 13.7385 13.8897C13.8244 13.8897 13.876 13.8546 13.9276 13.7865C14.4602 13.1159 15.0448 12.6517 15.7171 12.2721C16.5077 11.825 17.3172 11.6019 17.9533 11.465C18.2628 11.3948 18.3488 11.3275 18.3488 11.1555C18.3488 10.9492 18.194 10.8289 17.9877 10.8117C17.8613 10.7976 17.7463 10.8065 17.5772 10.8196L17.5772 10.8196C17.5393 10.8226 17.4987 10.8257 17.4547 10.8289C17.2828 10.846 17.1968 10.7587 17.0937 10.5366C17.045 10.4338 16.9891 10.3199 16.9279 10.1955C16.6007 9.52922 16.1247 8.56022 15.8217 7.37224C15.6424 6.69502 15.5161 6.00482 15.4438 5.30796C15.3922 4.9297 15.461 4.79215 15.6497 4.62021C15.8905 4.41424 16.3203 4.32827 16.647 4.41424C17.0421 4.51705 17.2484 4.82653 17.454 6.03149C17.5719 6.67783 17.733 7.31575 17.9354 7.94103C18.1933 8.73194 18.5197 9.38669 19.0183 10.2632C19.3155 10.7699 19.6425 11.2583 19.998 11.7257C19.9278 11.932 19.8092 12.0696 19.4137 12.3963C19.0183 12.723 18.6221 13.0675 18.2625 13.7033C18.0046 14.1676 17.8842 14.683 17.8842 15.0269C17.8842 15.3708 17.9544 15.4223 18.1593 15.4223C18.52 15.4223 18.8123 15.3522 18.8295 15.1988C18.9155 14.5802 19.0186 14.1848 19.3625 13.7191C19.5688 13.4612 19.9299 13.1345 20.2218 12.877C20.772 12.4303 20.9612 12.1724 21.1503 11.5362C21.2306 11.251 21.3401 10.9745 21.4766 10.7113C21.8033 10.1095 22.3889 9.42213 23.3012 9.42213C23.5935 9.42213 23.8339 9.50775 23.9886 9.74846C24.0746 9.88601 24.109 10.0751 24.109 10.2127C24.109 10.508 23.9055 10.9128 23.7972 11.1283L23.7823 11.158L23.7238 11.2826L23.7238 11.2826C23.3439 12.0898 22.7854 13.2766 22.7854 14.6318C22.7837 17.7445 21.6836 19.292 20.824 20.0839C19.9818 20.8745 18.6565 21.5636 17.0923 21.5636C15.975 21.5636 14.8216 21.2369 13.8764 20.6183C12.5794 19.7587 11.7595 18.4199 10.9343 17.0726L10.8836 16.9898C10.2134 15.8725 9.74919 14.9943 9.02566 13.2924C8.61652 12.3064 8.23651 11.3436 7.91123 10.2951Z" fill="#ADADAD"/>
</g>
<defs>
<clipPath id="clip0_1308_87440">
<rect width="24.2886" height="20" fill="white" transform="translate(0.856445 2.59082)"/>
</clipPath>
</defs>
</svg>
