<svg width="24" height="24" viewBox="0 0 24 24" fill="none" xmlns="http://www.w3.org/2000/svg">
<path fill-rule="evenodd" clip-rule="evenodd" d="M19.4511 4.35743C19.6547 3.17768 19.9533 2.43582 20.2841 2.4344H20.2849C20.9018 2.43652 21.4019 5.00931 21.4019 8.18581C21.4019 11.3623 20.9011 13.9372 20.2835 13.9372C20.0303 13.9372 19.7967 13.5 19.6085 12.7673C19.3112 15.4492 18.6943 17.2929 17.9802 17.2929C17.4276 17.2929 16.9317 16.1855 16.5988 14.4388C16.3714 17.7606 15.7993 20.1173 15.1306 20.1173C14.7109 20.1173 14.3283 19.1834 14.045 17.6628C13.7044 20.8017 12.9175 23.0011 11.9998 23.0011C11.0821 23.0011 10.2939 20.8024 9.95462 17.6628C9.67344 19.1834 9.29086 20.1173 8.86906 20.1173C8.20039 20.1173 7.62962 17.7606 7.40091 14.4388C7.06798 16.1855 6.57348 17.2929 6.01949 17.2929C5.30604 17.2929 4.68844 15.45 4.39117 12.7673C4.20442 13.5021 3.9694 13.9372 3.7162 13.9372C3.09858 13.9372 2.59777 11.3623 2.59777 8.18581C2.59777 5.00931 3.09858 2.4344 3.7162 2.4344C4.04774 2.4344 4.34431 3.17838 4.54995 4.35743C4.87939 2.32315 5.41448 1.00098 6.01949 1.00098C6.73784 1.00098 7.36035 2.87087 7.65483 5.58608C7.94299 3.6099 8.38015 2.35008 8.86979 2.35008C9.55592 2.35008 10.1393 4.82792 10.3554 8.2843C10.7618 6.51215 11.35 5.40043 12.0012 5.40043C12.6524 5.40043 13.2407 6.51288 13.6463 8.2843C13.8632 4.82792 14.4458 2.35008 15.132 2.35008C15.6209 2.35008 16.0574 3.6099 16.3469 5.58608C16.6407 2.87087 17.2632 1.00098 17.9816 1.00098C18.5845 1.00098 19.1217 2.32386 19.4511 4.35743ZM0.999603 7.62013C0.999603 6.20016 1.28358 5.04874 1.63401 5.04874C1.98443 5.04874 2.26841 6.20016 2.26841 7.62013C2.26841 9.04005 1.98443 10.1915 1.63401 10.1915C1.28358 10.1915 0.999603 9.04005 0.999603 7.62013ZM21.7308 7.62013C21.7308 6.20016 22.0147 5.04874 22.3652 5.04874C22.7156 5.04874 22.9996 6.20016 22.9996 7.62013C22.9996 9.04005 22.7156 10.1915 22.3652 10.1915C22.0147 10.1915 21.7308 9.04005 21.7308 7.62013Z" fill="#ADADAD"/>
</svg>
