<svg width="24" height="24" viewBox="0 0 24 24" fill="none" xmlns="http://www.w3.org/2000/svg">
<g clip-path="url(#clip0_1308_87491)">
<path fill-rule="evenodd" clip-rule="evenodd" d="M2.00018 2.00146H22.0002V22.0015H2.00018V2.00146ZM10.0005 6.00264H6.00046V18.0026H10.0005V6.00264ZM10.0007 6.00264H18.0007V10.0026H10.0007V6.00264ZM10.0007 10.0034H14.0007V14.0034H10.0007V10.0034Z" fill="#ADADAD"/>
<path opacity="0.2" d="M14.0001 10.001H10.0001V14.001H14.0001V10.001Z" fill="#ADADAD"/>
<path opacity="0.1" d="M18.0001 6.00146H10.0001V10.0015H18.0001V6.00146Z" fill="#ADADAD"/>
</g>
<defs>
<clipPath id="clip0_1308_87491">
<path d="M2.00037 11.999C2.00037 6.47618 6.47752 1.99902 12.0004 1.99902C17.5232 1.99902 22.0004 6.47618 22.0004 11.999C22.0004 17.5219 17.5232 21.999 12.0004 21.999C6.47752 21.999 2.00037 17.5219 2.00037 11.999Z" fill="white"/>
</clipPath>
</defs>
</svg>
