<svg width="24" height="24" viewBox="0 0 24 24" fill="none" xmlns="http://www.w3.org/2000/svg">
<path d="M12.3012 1.78809C6.33352 1.78567 1.5 6.61678 1.5 12.5796C1.5 17.2949 4.52366 21.3031 8.73459 22.7751C9.30168 22.9175 9.2148 22.5145 9.2148 22.2394V20.3692C5.94018 20.7529 5.80745 18.5859 5.58786 18.224C5.14384 17.4662 4.09412 17.2732 4.40783 16.9112C5.15349 16.5275 5.91363 17.0077 6.79443 18.3084C7.43149 19.252 8.67426 19.0927 9.30409 18.9358C9.44164 18.3688 9.73604 17.862 10.1414 17.4687C6.74858 16.8605 5.33448 14.7901 5.33448 12.3287C5.33448 11.1342 5.72782 10.0362 6.50002 9.15057C6.00774 7.69062 6.54587 6.44062 6.61827 6.25481C8.0203 6.12932 9.47784 7.25867 9.59125 7.34796C10.3876 7.13319 11.2973 7.01977 12.3157 7.01977C13.3389 7.01977 14.251 7.13801 15.0546 7.3552C15.3273 7.14767 16.6786 6.17758 17.9817 6.29583C18.0517 6.48164 18.5778 7.70269 18.1145 9.14333C18.8963 10.0314 19.2945 11.139 19.2945 12.3359C19.2945 14.8021 17.8707 16.875 14.4682 17.4735C15.0353 18.0333 15.3876 18.8104 15.3876 19.6694V22.3842C15.4069 22.6014 15.3876 22.8162 15.7496 22.8162C20.0233 21.3755 23.1 17.3383 23.1 12.5821C23.1 6.61678 18.2641 1.78809 12.3012 1.78809Z" fill="#ADADAD"/>
</svg>
