<svg width="24" height="24" viewBox="0 0 24 24" fill="none" xmlns="http://www.w3.org/2000/svg">
<path d="M15.365 8.98564C15.0795 7.11268 14.0319 5.88624 12.5504 5.69052C12.3465 5.66358 11.8554 5.65498 11.6365 5.67452C10.2346 5.79968 9.07344 6.94572 8.72856 8.54463C8.14458 11.2523 9.22098 13.5987 11.2487 14.038C11.9971 14.2001 12.7928 14.12 13.4039 13.821C14.9195 13.0794 15.6969 11.1628 15.365 8.98564Z" fill="#ADADAD"/>
<path fill-rule="evenodd" clip-rule="evenodd" d="M4.50037 2.00146H19.5004C20.8811 2.00146 22.0004 3.12075 22.0004 4.50146V19.5015C22.0004 20.8822 20.8811 22.0015 19.5004 22.0015H4.50037C3.11965 22.0015 2.00037 20.8822 2.00037 19.5015V4.50146C2.00037 3.12075 3.11965 2.00146 4.50037 2.00146ZM7.28942 10.4006C7.09126 7.19228 8.79442 4.86148 11.5265 4.60224C12.8377 4.47782 13.9203 4.86588 14.7803 5.76854C15.0147 6.01459 15.1712 6.22795 15.3082 6.48822C15.3639 6.59404 15.4178 6.68064 15.428 6.68064C15.439 6.68064 15.4465 6.31728 15.4465 5.78066V4.88066H16.7476L16.7406 10.0056C16.7342 14.7604 16.7379 15.2171 16.6682 15.6623C16.6563 15.7383 16.6423 15.814 16.6257 15.9106C16.2244 18.2492 14.8154 19.3964 12.2728 19.455C9.68309 19.5147 7.84766 18.3123 7.67387 16.4424L7.66071 16.3006L8.95645 16.3014L9.01184 16.526C9.22618 17.3954 9.9279 18.0211 10.9565 18.2601C11.7141 18.4362 12.6784 18.4156 13.3608 18.2088C14.6615 17.8149 15.3274 16.7355 15.4265 14.8606C15.4526 14.3678 15.4527 13.0606 15.4267 13.0606C15.4159 13.0606 15.3789 13.1163 15.3446 13.1844C14.9835 13.8997 14.39 14.4896 13.6689 14.85C12.6548 15.3568 10.9583 15.305 9.77516 14.7312C8.27321 14.0027 7.42008 12.5164 7.28942 10.4006Z" fill="#ADADAD"/>
</svg>
