<svg width="24" height="24" viewBox="0 0 24 24" fill="none" xmlns="http://www.w3.org/2000/svg">
<path fill-rule="evenodd" clip-rule="evenodd" d="M21.3708 11.5263C21.3706 11.6839 21.3704 11.8416 21.3704 11.9995C21.3704 12.1761 21.3707 12.3525 21.3709 12.5287C21.3726 13.6434 21.3743 14.7516 21.3095 15.8667C21.2368 17.3667 20.897 18.6956 19.7978 19.7948C18.7009 20.8917 17.3696 21.2339 15.8696 21.3066C14.7358 21.3703 13.6093 21.3691 12.4756 21.3678C12.3181 21.3677 12.1603 21.3675 12.0025 21.3675C11.8449 21.3675 11.6874 21.3677 11.5301 21.3678C10.398 21.3691 9.27116 21.3703 8.13527 21.3066C6.63527 21.2339 5.30636 20.8941 4.20714 19.7948C3.11027 18.698 2.76808 17.3667 2.69542 15.8667C2.63163 14.7329 2.63288 13.6045 2.63414 12.4719C2.63431 12.3146 2.63449 12.1571 2.63449 11.9995C2.63449 11.8419 2.63431 11.6845 2.63414 11.5271C2.63288 10.3951 2.63163 9.26821 2.69542 8.13234C2.76808 6.63234 3.10792 5.30343 4.20714 4.20421C5.30402 3.10734 6.63527 2.76515 8.13527 2.69249C9.26905 2.62871 10.3956 2.62995 11.5292 2.63121C11.6868 2.63138 11.8445 2.63156 12.0025 2.63156C12.16 2.63156 12.3175 2.63138 12.4748 2.63121C13.6069 2.62995 14.7338 2.6287 15.8696 2.69249C17.3696 2.76515 18.6985 3.10499 19.7978 4.20421C20.8946 5.30109 21.2368 6.63234 21.3095 8.13234C21.3733 9.26612 21.372 10.3927 21.3708 11.5263ZM7.19308 11.9995C7.19308 14.6597 9.33995 16.8066 12.0001 16.8066C14.6603 16.8066 16.8071 14.6597 16.8071 11.9995C16.8071 9.33937 14.6603 7.19249 12.0001 7.19249C9.33995 7.19249 7.19308 9.33937 7.19308 11.9995ZM15.8814 6.99562C15.8814 7.61671 16.3829 8.11828 17.004 8.11828C17.6251 8.11828 18.1243 7.61906 18.1267 6.99562C18.1267 6.37453 17.6251 5.87296 17.004 5.87296C16.3829 5.87296 15.8814 6.37453 15.8814 6.99562ZM8.87637 11.9988C8.87637 10.2785 10.2803 8.87461 12.0006 8.87461C13.7209 8.87461 15.1248 10.2785 15.1248 11.9988C15.1248 13.7191 13.7209 15.123 12.0006 15.123C10.2803 15.123 8.87637 13.7191 8.87637 11.9988Z" fill="#ADADAD"/>
</svg>
