<svg width="24" height="24" viewBox="0 0 24 24" fill="none" xmlns="http://www.w3.org/2000/svg">
<path d="M14.5412 13.2904H15.8535L15.8546 10.0147C15.8546 9.34505 15.6819 8.81335 15.3364 8.41958C14.9788 8.02636 14.5113 7.82449 13.9316 7.82449C13.2611 7.82449 12.7535 8.07994 12.4152 8.59024L12.0881 9.13242L11.7616 8.59024C11.4232 8.07994 10.9156 7.82449 10.244 7.82449C9.66368 7.82449 9.1962 8.02636 8.83977 8.41958C8.49426 8.81371 8.32151 9.34548 8.32151 10.0147V13.2904H9.63264V10.1112C9.63323 9.44191 9.91801 9.10061 10.4882 9.10061C11.1187 9.10061 11.4351 9.5044 11.4351 10.302V12.0421H12.7394V10.302C12.7394 9.5044 13.0552 9.10061 13.6857 9.10061C14.2593 9.10061 14.5412 9.44191 14.5412 10.1112V13.2904Z" fill="#ADADAD"/>
<path fill-rule="evenodd" clip-rule="evenodd" d="M2.51291 4.56946C2 5.5761 2 6.89387 2 9.52941V14.4706C2 17.1061 2 18.4239 2.51291 19.4305C2.96408 20.316 3.68399 21.0359 4.56946 21.4871C5.5761 22 6.89387 22 9.52941 22H14.4706C17.1061 22 18.4239 22 19.4305 21.4871C20.316 21.0359 21.0359 20.316 21.4871 19.4305C22 18.4239 22 17.1061 22 14.4706V9.52941C22 6.89387 22 5.5761 21.4871 4.56946C21.0359 3.68399 20.316 2.96408 19.4305 2.51291C18.4239 2 17.1061 2 14.4706 2H9.52941C6.89387 2 5.5761 2 4.56946 2.51291C3.68399 2.96408 2.96408 3.68399 2.51291 4.56946ZM15.0561 6.03023C16.4332 6.23156 17.595 7.2706 17.7743 8.58917C17.8524 9.37316 17.8138 10.551 17.795 11.1239C17.7903 11.2667 17.7868 11.3719 17.7867 11.4241C17.7867 11.5011 17.7754 12.2039 17.7709 12.2781C17.6502 14.1621 16.4626 14.9062 15.2146 15.1433C15.2013 15.1471 15.1864 15.15 15.1711 15.153C15.1668 15.1538 15.1625 15.1546 15.1582 15.1555C14.3669 15.3083 13.5194 15.349 12.7152 15.3713C12.5229 15.3763 12.3311 15.3763 12.1388 15.3763C11.3394 15.3766 10.5428 15.283 9.76518 15.0975C9.76107 15.0965 9.75675 15.0963 9.75263 15.0972C9.74848 15.0981 9.74458 15.0999 9.74128 15.1026C9.73798 15.1053 9.73537 15.1087 9.73367 15.1126C9.73194 15.1164 9.73112 15.1206 9.73135 15.1248C9.75339 15.3752 9.80839 15.6217 9.89493 15.8577C10.0026 16.131 10.3788 16.7874 11.7773 16.7874C12.5898 16.7889 13.3997 16.6954 14.1905 16.5086C14.1945 16.5077 14.1986 16.5077 14.2027 16.5086C14.2067 16.5095 14.2105 16.5112 14.2137 16.5137C14.217 16.5162 14.2196 16.5194 14.2214 16.5231C14.2233 16.5267 14.2242 16.5307 14.2243 16.5348V17.4595C14.2241 17.4639 14.223 17.4681 14.221 17.472C14.2189 17.4759 14.216 17.4793 14.2125 17.4818C13.966 17.6585 13.6349 17.7625 13.345 17.8536C13.331 17.858 13.3171 17.8624 13.3034 17.8667C13.1706 17.908 13.0362 17.9443 12.9007 17.9755C11.6669 18.2534 10.3803 18.1863 9.1821 17.7814C8.06379 17.3932 6.92236 16.4417 6.6404 15.2983C6.48985 14.6794 6.38375 14.0505 6.32292 13.4164C6.25902 12.7235 6.23768 12.0293 6.2163 11.3343C6.20823 11.0721 6.20017 10.8098 6.18981 10.5474C6.16334 9.8792 6.17855 9.15079 6.32122 8.49373C6.61786 7.15966 7.84047 6.22599 9.17926 6.03023C9.20671 6.0262 9.23703 6.02092 9.27252 6.01474C9.5374 5.96862 10.0902 5.87236 11.889 5.87236H11.9042C13.9435 5.87236 14.8237 5.99615 15.0561 6.03023Z" fill="#ADADAD"/>
</svg>
