<svg width="24" height="24" viewBox="0 0 24 24" fill="none" xmlns="http://www.w3.org/2000/svg">
<path fill-rule="evenodd" clip-rule="evenodd" d="M21.9996 12.001C21.9996 6.47813 17.5225 2.00098 11.9996 2.00098C6.47678 2.00098 1.99963 6.47813 1.99963 12.001C1.99963 17.5238 6.47678 22.001 11.9996 22.001C17.5225 22.001 21.9996 17.5238 21.9996 12.001ZM9.48769 15.2733C11.2826 15.2733 12.7378 13.8082 12.7378 12.001C12.7378 10.1937 11.2826 8.72871 9.48769 8.72871C7.6928 8.72871 6.23772 10.1933 6.23772 12.001C6.23772 13.8086 7.69269 15.2733 9.48769 15.2733ZM14.6781 15.0813C15.5755 15.0813 16.3031 13.7023 16.3031 12.001C16.3031 10.3001 15.5755 8.92062 14.6781 8.92062C13.7807 8.92062 13.053 10.3001 13.053 12.001C13.053 13.7018 13.7807 15.0813 14.6781 15.0813ZM17.1899 14.7608C17.5055 14.7608 17.7614 13.5252 17.7614 12.001C17.7614 10.4768 17.5057 9.24109 17.19 9.24109C16.8742 9.24109 16.6183 10.4771 16.6183 12.001C16.6183 13.5248 16.8742 14.7608 17.1899 14.7608Z" fill="#ADADAD"/>
</svg>
