<svg width="24" height="24" viewBox="0 0 24 24" fill="none" xmlns="http://www.w3.org/2000/svg">
<g clip-path="url(#clip0_1308_87451)">
<path fill-rule="evenodd" clip-rule="evenodd" d="M1.99942 12C1.99942 6.47709 6.47651 2 11.9994 2C17.5223 2 21.9994 6.47709 21.9994 12C21.9994 17.5229 17.5223 22 11.9994 22C11.8591 22 11.7193 21.9965 11.5804 21.9908H7.39354V12.0084C7.39354 9.47288 9.44882 7.41645 11.9843 7.41645C14.5198 7.41645 16.5751 9.47288 16.5751 12.0084C16.5751 14.5439 14.5198 16.5992 11.9843 16.5992C11.0573 16.5992 10.1942 16.3237 9.4725 15.8512V19.1514C9.95604 19.449 11.06 19.6591 12.3549 19.6697C16.4303 19.4838 19.678 16.1216 19.678 12.0003C19.678 7.75975 16.2399 4.32168 11.9993 4.32168C7.75877 4.32168 4.3207 7.75975 4.3207 12.0003V16.5772V19.6709V21.9908H1.99942V12ZM11.9993 19.6789C11.8916 19.6789 11.7839 19.6753 11.6773 19.6709H12.3376C12.2253 19.6757 12.1128 19.6789 11.9993 19.6789Z" fill="#ADADAD"/>
</g>
<defs>
<clipPath id="clip0_1308_87451">
<rect width="20" height="20" fill="white" transform="translate(2.0004 1.99902)"/>
</clipPath>
</defs>
</svg>
