<svg width="24" height="24" viewBox="0 0 24 24" fill="none" xmlns="http://www.w3.org/2000/svg">
<path fill-rule="evenodd" clip-rule="evenodd" d="M2.06754 14.3716C3.29707 18.4073 7.04953 21.3456 11.4872 21.3456C16.9251 21.3456 21.3334 16.9373 21.3334 11.4995C21.3334 6.06163 16.9251 1.65332 11.4872 1.65332C6.26937 1.65332 1.99952 5.71271 1.66229 10.8453C1.66364 10.8476 1.66499 10.8498 1.66633 10.8521C1.66638 10.8514 1.6664 10.851 1.6664 10.851L6.95717 13.0316C7.10181 12.9337 7.25629 12.8512 7.41809 12.7855C7.78978 12.6325 8.18117 12.5639 8.57132 12.5818L10.9806 9.08177L10.9796 9.03315H10.9766C10.9766 6.96731 12.6544 5.28731 14.7166 5.28731C16.7827 5.29162 18.4566 6.96731 18.4566 9.03315C18.4566 11.099 16.7796 12.7808 14.7166 12.7808L14.6319 12.7793L11.1879 15.2424C11.1979 15.628 11.1262 16.0114 10.9775 16.3673C10.6988 17.0355 10.1662 17.5658 9.49684 17.8417C8.82745 18.1176 8.07592 18.1165 7.40732 17.8387C6.55748 17.4848 5.97902 16.7488 5.7944 15.9095L2.06754 14.3716ZM7.6464 17.2621C8.71932 17.7092 9.95378 17.2024 10.4012 16.1255H10.3987C10.6147 15.6067 10.6159 15.0322 10.4018 14.5113C10.1876 13.9904 9.78763 13.583 9.26455 13.3667C8.74825 13.1522 8.19625 13.1584 7.71071 13.343L8.97225 13.8645C9.3522 14.0233 9.6536 14.3264 9.81024 14.7072C9.96687 15.088 9.96593 15.5155 9.80763 15.8956C9.72945 16.0837 9.61497 16.2546 9.47073 16.3985C9.32649 16.5424 9.15531 16.6564 8.96697 16.7341C8.77864 16.8118 8.57684 16.8516 8.37312 16.8513C8.16939 16.851 7.96772 16.8105 7.77963 16.7322L6.56209 16.2276C6.78436 16.6938 7.17028 17.062 7.6464 17.2621ZM12.9584 10.7967C13.4254 11.2646 14.0589 11.5283 14.7199 11.5301C15.3811 11.5284 16.0147 11.2648 16.4819 10.7969C16.949 10.329 17.2117 9.69496 17.2122 9.03377C17.2115 8.37268 16.9488 7.73883 16.4817 7.27105C16.0145 6.80327 15.381 6.5397 14.7199 6.53808C14.059 6.53987 13.4256 6.80351 12.9586 7.27127C12.4916 7.73903 12.229 8.37279 12.2282 9.03377C12.2288 9.69486 12.4914 10.3288 12.9584 10.7967ZM13.4001 7.70485C13.0493 8.05651 12.8525 8.53306 12.8529 9.02977C12.8526 9.52642 13.0492 10.0029 13.4001 10.3544C13.7509 10.7059 14.227 10.9038 14.7236 10.9045C15.2204 10.904 15.6967 10.7063 16.0478 10.3547C16.3988 10.0032 16.5959 9.52658 16.5956 9.02977C16.5956 7.99438 15.7559 7.15438 14.7236 7.15438C14.2269 7.1552 13.7509 7.35319 13.4001 7.70485Z" fill="#ADADAD"/>
</svg>
