<svg width="24" height="24" viewBox="0 0 24 24" fill="none" xmlns="http://www.w3.org/2000/svg">
<path fill-rule="evenodd" clip-rule="evenodd" d="M12.0002 22C17.523 22 22.0002 17.5228 22.0002 12C22.0002 6.47715 17.523 2 12.0002 2C6.47734 2 2.00018 6.47715 2.00018 12C2.00018 17.5228 6.47734 22 12.0002 22ZM7.54556 8.42559H7.51723C7.10299 8.85046 6.68237 9.27023 6.26149 9.69025C5.98087 9.9703 5.70015 10.2505 5.42112 10.5323C5.40303 10.5515 5.38315 10.5697 5.36319 10.5879C5.32063 10.6267 5.27772 10.6658 5.25116 10.7164C5.63178 11.0953 6.01152 11.475 6.39126 11.8548C6.77101 12.2345 7.15076 12.6143 7.5314 12.9931C7.91153 12.6148 8.29079 12.2346 8.67004 11.8545C9.04675 11.4769 9.42346 11.0993 9.80101 10.7235V10.6952L8.236 9.13019C8.15308 9.04472 8.06833 8.96154 7.98373 8.87851C7.83351 8.7311 7.68377 8.58414 7.54556 8.42559ZM12.1131 8.42559H12.0848C11.732 8.79008 11.3713 9.14904 11.0106 9.50807C10.6074 9.90936 10.2041 10.3107 9.81163 10.72C10.2385 11.137 10.6599 11.5595 11.0813 11.982C11.4184 12.32 11.7555 12.6579 12.0954 12.9931C12.4637 12.6266 12.8312 12.2592 13.1986 11.8917C13.5624 11.528 13.9261 11.1643 14.2907 10.8014C14.298 10.7941 14.3057 10.787 14.3134 10.7798C14.3393 10.7558 14.3656 10.7315 14.3792 10.6987C13.9354 10.2655 13.4979 9.82721 13.0607 9.38916C12.7689 9.09683 12.4773 8.80462 12.1839 8.5141C12.1556 8.48578 12.1344 8.45745 12.1131 8.42559ZM16.6807 8.42559H16.6523C16.4156 8.67366 16.1731 8.91442 15.9303 9.15539C15.7954 9.28931 15.6605 9.42329 15.5264 9.55862C15.3734 9.71017 15.2216 9.86284 15.0698 10.0155C14.842 10.2445 14.6143 10.4735 14.3827 10.6987C14.3951 10.7334 14.4213 10.7576 14.4481 10.7824C14.4596 10.7931 14.4712 10.8039 14.4819 10.8156L16.6594 12.9931C17.0579 12.6075 17.4487 12.2143 17.8394 11.8214C18.2055 11.4531 18.5715 11.085 18.9432 10.7235C18.9356 10.6905 18.9098 10.6666 18.8853 10.6439C18.8756 10.635 18.8662 10.6263 18.8582 10.6173L17.141 8.90004C17.0856 8.84211 17.0284 8.78604 16.9711 8.72997C16.871 8.63186 16.7708 8.53374 16.6807 8.42559ZM10.5912 14.4946C10.3417 14.7437 10.0924 14.9926 9.8435 15.2415C9.83996 15.2486 9.83642 15.2574 9.83288 15.2663C9.82934 15.2751 9.8258 15.284 9.82226 15.2911C10.2092 15.6727 10.5921 16.0563 10.9756 16.4404C11.1009 16.566 11.2262 16.6916 11.3518 16.8171C11.4567 16.9175 11.5591 17.0217 11.6615 17.1259C11.8048 17.2715 11.9483 17.4174 12.099 17.5536C12.2072 17.4581 12.3116 17.3511 12.4161 17.2441C12.4858 17.1726 12.5556 17.1012 12.6265 17.0331C12.9005 16.7609 13.1745 16.4869 13.4485 16.2128C13.7198 15.9416 13.991 15.6703 14.2623 15.4008C14.2758 15.3848 14.2911 15.3706 14.3063 15.3564C14.3348 15.3297 14.363 15.3033 14.3791 15.2663C13.6214 14.5192 12.8708 13.765 12.1201 13.0108L12.0883 12.9967C11.5902 13.4972 11.0904 13.9962 10.5912 14.4946Z" fill="#ADADAD"/>
</svg>
