<svg width="24" height="24" viewBox="0 0 24 24" fill="none" xmlns="http://www.w3.org/2000/svg">
<path fill-rule="evenodd" clip-rule="evenodd" d="M1.2001 12.0002C1.2001 6.03555 6.03546 1.2002 12.0001 1.2002C17.9648 1.2002 22.8001 6.03552 22.8001 12.0002C22.8001 17.9648 17.9648 22.8002 12.0001 22.8002C6.03546 22.8002 1.2001 17.9648 1.2001 12.0002ZM13.6102 7.40288C13.6158 7.46358 13.6238 7.52403 13.6342 7.58408C13.6877 7.88885 13.8051 8.17975 13.9779 8.43643C14.1507 8.69311 14.3752 8.90985 14.6374 9.07408C14.986 9.29248 15.3892 9.40798 15.8006 9.40728V9.74328L15.801 10.9856C15.015 10.9868 14.2485 10.7406 13.6102 10.282V13.5008C13.6102 15.1112 12.3098 16.4168 10.705 16.4168C10.1287 16.4177 9.56546 16.2459 9.08778 15.9236L9.08629 15.9221C8.68983 15.6551 8.3651 15.2947 8.14069 14.8726C7.91606 14.4502 7.79886 13.9789 7.79942 13.5005C7.79942 11.8901 9.10022 10.5849 10.705 10.5849C10.8383 10.5849 10.9714 10.5939 11.1034 10.6121V10.9693L11.1034 12.2252C10.9038 12.1622 10.6922 12.1472 10.4857 12.1813C10.2792 12.2154 10.0836 12.2977 9.91492 12.4215C9.7462 12.5453 9.60905 12.7072 9.51461 12.894C9.42017 13.0807 9.3711 13.2872 9.37138 13.4964C9.37109 13.7433 9.43928 13.9853 9.56837 14.1957C9.69746 14.4061 9.88203 14.5757 10.1022 14.6873C10.2876 14.7812 10.4925 14.8299 10.7002 14.8297C11.0526 14.829 11.3903 14.6887 11.6394 14.4395C11.8885 14.1903 12.0286 13.8524 12.029 13.5001V7.20008H13.6102V7.40288ZM8.25954 13.9167C8.26118 14.072 8.27492 14.2244 8.29987 14.373C8.2746 14.2231 8.26098 14.0705 8.25954 13.9167Z" fill="#ADADAD"/>
</svg>
