<svg width="24" height="24" viewBox="0 0 24 24" fill="none" xmlns="http://www.w3.org/2000/svg">
<path fill-rule="evenodd" clip-rule="evenodd" d="M12.001 22.0142C6.48853 22.0142 2.01978 17.5266 2.01978 12.0142C2.01978 6.50167 6.48853 2.01416 12.001 2.01416C17.5135 2.01416 21.9823 6.50167 21.9823 12.0142C21.9823 17.5266 17.5135 22.0142 12.001 22.0142ZM14.1254 15.5681C14.4562 15.5598 14.8998 15.4636 15.1318 15.353L15.7317 17.1315C15.5068 17.4629 14.4885 17.8466 13.5717 17.8623C10.8543 17.9091 9.82488 15.9265 9.82488 14.531V10.4555H8.56238V8.8442C10.4549 8.1617 10.9099 6.45483 11.0168 5.48233C11.0242 5.41553 11.0767 5.3892 11.1068 5.3892H12.9335V8.56678H15.43V10.4555H12.9249V14.3387C12.9329 14.8666 13.1268 15.5948 14.1254 15.5681Z" fill="#ADADAD"/>
</svg>
