<svg width="24" height="24" viewBox="0 0 24 24" fill="none" xmlns="http://www.w3.org/2000/svg">
<g clip-path="url(#clip0_1308_87457)">
<path fill-rule="evenodd" clip-rule="evenodd" d="M21.868 11.9912C21.868 17.4472 17.4451 21.8701 11.9891 21.8701C6.53306 21.8701 2.11017 17.4472 2.11017 11.9912C2.11017 6.5352 6.53306 2.1123 11.9891 2.1123C17.4451 2.1123 21.868 6.5352 21.868 11.9912ZM16.9436 9.05108C16.9436 8.2285 16.7704 7.57737 16.3862 6.94512L13.064 7.61535C13.275 8.05616 13.4102 8.59138 13.4102 9.3773C13.4102 10.8133 12.3914 12.9192 11.5659 14.2592L10.6826 7.17453L7.03439 7.51963L8.70524 17.4763H12.8717C14.696 15.0829 16.9436 11.6747 16.9436 9.05108Z" fill="#ADADAD"/>
</g>
<defs>
<clipPath id="clip0_1308_87457">
<rect width="20" height="20" fill="white" transform="translate(2.0004 1.99902)"/>
</clipPath>
</defs>
</svg>
