<svg width="40" height="40" viewBox="0 0 40 40" fill="none" xmlns="http://www.w3.org/2000/svg">
<rect width="40" height="40" rx="20" fill="url(#paint0_linear_1631_6001)"/>
<g clip-path="url(#clip0_1631_6001)">
<path d="M18.3817 12.0338C13.8865 12.0338 10.2418 15.6894 10.2418 20.1991C10.2418 23.6971 12.435 26.6811 15.5169 27.8434C17.3172 26.8573 19.2098 25.6403 21.0884 24.2549C20.0136 25.502 18.3651 26.8698 16.3601 28.1101C17.0063 28.276 17.6836 28.3643 18.3817 28.3643C22.8768 28.3643 26.5216 24.7088 26.5216 20.1991C26.5216 15.6894 22.8768 12.0338 18.3817 12.0338Z" fill="white"/>
<path d="M31.5495 10.6198C30.4628 9.18088 26.5823 10.1743 21.8865 12.8287C22.1156 12.9383 22.339 13.059 22.5556 13.1894C25.6748 11.6418 28.1375 11.1672 28.8972 12.1736C30.1114 13.7815 26.5211 18.5615 20.8781 22.8503C15.2345 27.139 9.67541 29.312 8.46119 27.7036C7.76676 26.7845 8.64361 24.8283 10.5756 22.5202C10.4999 22.2644 10.4367 22.0029 10.3864 21.7373C6.99044 25.2899 5.26991 28.4563 6.29394 29.8121C7.80044 31.8073 14.6758 29.128 21.6497 23.8281C28.6241 18.5283 33.056 12.6145 31.5495 10.6198Z" fill="white"/>
<path d="M28.2427 24.2664C28.2437 25.6643 29.373 26.797 30.7665 26.7981C29.373 26.7991 28.2437 27.9318 28.2427 29.3297C28.2417 27.9318 27.1124 26.7991 25.7189 26.7981C27.1124 26.797 28.2417 25.6643 28.2427 24.2664Z" fill="white"/>
<path d="M11.6063 8.82272C11.6068 9.80628 12.4012 10.6032 13.3817 10.6037C12.4012 10.6042 11.6068 11.4012 11.6063 12.3847C11.6058 11.4012 10.8113 10.6042 9.83081 10.6037C10.8113 10.6032 11.6058 9.80628 11.6063 8.82272Z" fill="white"/>
<path d="M27.0176 27.8804C24.954 29.9878 22.0815 31.2953 18.9036 31.2953C16.7551 31.2953 14.7459 30.6974 13.0315 29.6588C12.7191 29.795 12.4112 29.9229 12.1096 30.0403C12.0687 30.0565 12.0288 30.071 11.9883 30.0866C14.224 31.89 17.0639 32.9697 20.1562 32.9697C23.2485 32.9697 25.9869 31.929 28.2034 30.1833C28.0769 29.2814 27.6457 28.4777 27.0176 27.8799V27.8804Z" fill="white"/>
<path d="M28.988 25.1662C29.5373 25.9268 30.3509 26.4825 31.2941 26.6982C32.5032 24.7135 33.2002 22.3809 33.2002 19.8851C33.2002 17.709 32.67 15.6572 31.7331 13.8517C31.3729 14.592 30.8598 15.4092 30.1944 16.2971C30.0814 16.4479 29.9643 16.6002 29.8441 16.753C30.1265 17.7485 30.2784 18.7991 30.2784 19.8851C30.2784 21.7909 29.812 23.5875 28.9885 25.1662H28.988Z" fill="white"/>
<path d="M28.2924 30.1116C29.4081 29.2174 30.3747 28.1439 31.1473 26.9337C29.6699 27.3324 28.5375 28.5733 28.2924 30.1116Z" fill="white"/>
<path d="M10.9773 11.7022C10.8182 11.5015 10.6332 11.3221 10.4269 11.1693C8.36539 13.4837 7.11127 16.5373 7.11127 19.8851C7.11127 21.3168 7.34136 22.6938 7.76476 23.9831C7.87981 23.8318 7.99848 23.68 8.12079 23.5271C7.73677 22.3835 7.52896 21.1587 7.52896 19.8851C7.52896 16.675 8.85098 13.7753 10.9778 11.7022H10.9773Z" fill="white"/>
<path d="M20.1556 6.79999C17.1726 6.79999 14.4245 7.80485 12.2266 9.49488C12.4308 9.75481 12.678 9.97886 12.9579 10.1561C14.6877 9.08992 16.7239 8.47494 18.903 8.47494C21.3211 8.47494 23.5625 9.23236 25.4053 10.5226C25.5157 10.4779 25.625 10.4337 25.7339 10.3916C26.6589 10.0314 27.4964 9.77352 28.2421 9.61809C26.0194 7.85372 23.2106 6.79999 20.1556 6.79999Z" fill="white"/>
</g>
<defs>
<linearGradient id="paint0_linear_1631_6001" x1="0" y1="0" x2="40" y2="40" gradientUnits="userSpaceOnUse">
<stop stop-color="#FF8A48"/>
<stop offset="1" stop-color="#FF4667"/>
</linearGradient>
<clipPath id="clip0_1631_6001">
<rect x="6" y="6.79999" width="27.2" height="26.1697" rx="13.0848" fill="white"/>
</clipPath>
</defs>
</svg>
