<svg width="32" height="32" viewBox="0 0 32 32" fill="none" xmlns="http://www.w3.org/2000/svg">
<rect width="32" height="32" rx="16" fill="url(#paint0_linear_2466_7707)"/>
<path d="M23.5483 20.2654C23.2267 20.587 22.5835 21.0676 21.4597 21.0676H14.5471C16.6357 19.0677 18.4063 17.3858 18.569 17.2231C18.8758 16.9126 19.1974 16.6206 19.5338 16.3433C20.3396 15.6225 20.9791 15.5412 21.5447 15.5412C22.3469 15.5412 22.9901 15.8628 23.5557 16.3396C24.6757 17.3821 24.6757 19.2267 23.5483 20.2654ZM24.916 15.0569C24.0658 14.1402 22.8718 13.6152 21.6187 13.6152C20.4949 13.6152 19.5301 14.0182 18.6429 14.6577C18.3176 14.9793 17.837 15.2972 17.4341 15.7777C17.1125 16.0993 10.1999 22.8271 10.1999 22.8271C10.6028 22.9085 11.0834 22.9085 11.4863 22.9085H20.2509C20.8941 22.9085 21.3784 22.9085 21.8589 22.8271C22.9679 22.7458 24.014 22.2948 24.8347 21.5444C26.683 19.7848 26.683 16.8239 24.916 15.0569Z" fill="#00A3FF"/>
<path d="M13.6599 14.5763C12.7764 13.9368 11.8892 13.6152 10.8468 13.6152C9.59364 13.6152 8.39964 14.1402 7.54943 15.0569C5.76028 16.8941 5.79724 19.8329 7.63075 21.6258C8.43291 22.3466 9.23877 22.7458 10.2036 22.8271L12.0519 21.0639H11.0057C9.95961 20.9862 9.3164 20.6646 8.91717 20.2654C7.80819 19.1712 7.77492 17.3968 8.83584 16.262C9.39772 15.7001 10.0409 15.4598 10.8468 15.4598C11.331 15.4598 12.0519 15.5375 12.7764 16.2583C13.098 16.5799 13.9815 17.2194 14.3031 17.541H14.3807L15.5858 16.3396V16.2583C15.0276 15.7001 14.1441 14.9793 13.6599 14.5763Z" fill="#00C8DC"/>
<path d="M22.1029 12.5764C21.1898 10.1256 18.8499 8.4954 16.2327 8.4917C13.098 8.4917 10.6065 10.8132 10.1223 13.6965C10.3625 13.6965 10.6065 13.6189 10.9281 13.6189C11.2497 13.6189 11.6526 13.6965 11.9742 13.6965C12.3772 11.6929 14.1441 10.2513 16.2364 10.2513C18.0034 10.2513 19.5338 11.2937 20.2546 12.813C20.2546 12.813 20.3359 12.8943 20.3359 12.813C20.8941 12.7354 21.5373 12.5764 22.1029 12.5764Z" fill="#006EFF"/>
<defs>
<linearGradient id="paint0_linear_2466_7707" x1="16" y1="0" x2="16" y2="32" gradientUnits="userSpaceOnUse">
<stop stop-color="#FCFCFC"/>
<stop offset="1" stop-color="#F2F2F2"/>
</linearGradient>
</defs>
</svg>
